M48
;Layer_Color=9474304
;FILE_FORMAT=4:4
METRIC,LZ
;TYPE=PLATED
T01F00S00C0.3000
T02F00S00C0.6500
T03F00S00C0.7000
T04F00S00C0.7500
T05F00S00C0.8000
T06F00S00C1.0000
T07F00S00C1.0500
T08F00S00C1.1000
T09F00S00C1.1900
T10F00S00C1.2900
T11F00S00C1.3200
T12F00S00C1.3700
T13F00S00C2.9000
%
T01
X0062738Y0037338
X004572Y0040005
X0044323
X0043434Y0040894
X0042545Y0041529
X0044323Y005588
X0043561Y0058928
T02
X005789Y0030226
X0057509Y0036957
X0066421Y003757
X0066802Y0042821
Y0049381
X0066421Y003101
X005133Y0030226
X0050949Y0036957
T03
X0023495Y0004084
Y0006584
X0043093Y0005715
X0045593
X0023495Y0015641
Y0018141
X00642747Y0054991
Y0056261
Y0057531
Y0058801
Y0060071
Y0061341
Y0062611
Y0063881
Y0065151
T04
X0041148Y0028655
Y0038655
Y0059643
Y0069643
T05
X0041585Y0017907
X0045085
T06
X0035814Y0031365
Y0033655
Y0035945
X0036576Y0062099
Y0064389
Y0066679
T07
X0035052Y0043838
X0039878Y0043711
Y0054587
X0035052Y0054714
T08
X0033909Y0004826
Y0007366
Y0009906
T09
X0007366Y0012446
X0057658Y0013335
Y0010795
Y0015875
Y0018415
Y0020955
Y0023495
X0007366Y0014986
X0006858Y0038227
Y0040767
Y0043307
Y0058928
Y0061468
Y0064008
T10
X0014506Y0041656
X0014125Y0063119
T11
X0016506Y0035656
Y0047656
X0028706
Y0035656
X0028325Y0057119
Y0069119
X0016125
Y0057119
T12
X0013843Y0004729
Y0009779
Y0014829
Y0019879
T13
X0002286Y0002413
X0066167
X0002286Y0070612
X0067183Y007112
M30
