G04*
G04 #@! TF.GenerationSoftware,Altium Limited,Altium Designer,24.1.2 (44)*
G04*
G04 Layer_Color=65535*
%FSLAX44Y44*%
%MOMM*%
G71*
G04*
G04 #@! TF.SameCoordinates,B745F531-A7CA-4E96-B01F-91F4E74D0D5B*
G04*
G04*
G04 #@! TF.FilePolarity,Positive*
G04*
G01*
G75*
%ADD10C,0.1000*%
%ADD11C,0.3000*%
%ADD12C,0.1270*%
%ADD13C,0.2500*%
%ADD14C,0.1500*%
%ADD15C,0.2000*%
%ADD16C,0.2540*%
G36*
X84940Y319223D02*
X85510D01*
Y319033D01*
X86079D01*
Y318844D01*
X86838D01*
Y318654D01*
X87407D01*
Y318464D01*
X88166D01*
Y318274D01*
X88735D01*
Y318085D01*
X89304D01*
Y317895D01*
X90063D01*
Y317705D01*
X90632D01*
Y317516D01*
X91201D01*
Y317326D01*
X91960D01*
Y317136D01*
X92529D01*
Y316947D01*
X93098D01*
Y316757D01*
X93667D01*
Y316567D01*
X94426D01*
Y316377D01*
X94806D01*
Y316188D01*
X94616D01*
Y315998D01*
X94237D01*
Y315808D01*
X94047D01*
Y315618D01*
X93857D01*
Y315429D01*
X93667D01*
Y315239D01*
X93478D01*
Y315049D01*
X93288D01*
Y314860D01*
X93098D01*
Y314670D01*
X92909D01*
Y314480D01*
X92719D01*
Y314290D01*
X92529D01*
Y314101D01*
X92339D01*
Y314860D01*
X92150D01*
Y315429D01*
X91960D01*
Y315808D01*
X91770D01*
Y315998D01*
X91581D01*
Y316188D01*
X91391D01*
Y316377D01*
X91011D01*
Y316567D01*
X90632D01*
Y316757D01*
X90253D01*
Y316947D01*
X89683D01*
Y317136D01*
X89114D01*
Y317326D01*
X88355D01*
Y317516D01*
X87786D01*
Y317136D01*
X87597D01*
Y316567D01*
X87407D01*
Y315808D01*
X87217D01*
Y315239D01*
X87027D01*
Y314480D01*
X86838D01*
Y313911D01*
X86648D01*
Y313342D01*
X87217D01*
Y313531D01*
X87407D01*
Y314290D01*
X87597D01*
Y314860D01*
X87786D01*
Y315618D01*
X87976D01*
Y316188D01*
X88166D01*
Y316757D01*
X88355D01*
Y316947D01*
X88545D01*
Y316757D01*
X89304D01*
Y316567D01*
X89873D01*
Y316377D01*
X90442D01*
Y316188D01*
X90822D01*
Y315998D01*
X91201D01*
Y315808D01*
X91391D01*
Y315618D01*
X91581D01*
Y315429D01*
X91770D01*
Y315239D01*
X91960D01*
Y314860D01*
X92150D01*
Y314670D01*
X91960D01*
Y314860D01*
X91770D01*
Y315049D01*
X91581D01*
Y315239D01*
X91391D01*
Y315429D01*
X91201D01*
Y315618D01*
X91011D01*
Y315808D01*
X90632D01*
Y315998D01*
X90063D01*
Y316188D01*
X89494D01*
Y316377D01*
X88925D01*
Y316567D01*
X88355D01*
Y315998D01*
X88166D01*
Y315239D01*
X87976D01*
Y314480D01*
X87786D01*
Y313911D01*
X87597D01*
Y313152D01*
X87976D01*
Y312962D01*
X88545D01*
Y312773D01*
X89494D01*
Y312962D01*
X89683D01*
Y313152D01*
X90063D01*
Y313342D01*
X90253D01*
Y313531D01*
X90442D01*
Y313721D01*
X90822D01*
Y313152D01*
X90632D01*
Y312583D01*
X90442D01*
Y312014D01*
X90253D01*
Y311255D01*
X90063D01*
Y310686D01*
X89873D01*
Y310117D01*
X89683D01*
Y310496D01*
X89494D01*
Y310875D01*
X89304D01*
Y311255D01*
X89114D01*
Y311824D01*
X88925D01*
Y312014D01*
X88166D01*
Y312204D01*
X87597D01*
Y312393D01*
X87027D01*
Y312583D01*
X86269D01*
Y312014D01*
X86079D01*
Y311255D01*
X85889D01*
Y310686D01*
X85699D01*
Y309927D01*
X85510D01*
Y309358D01*
X85320D01*
Y308599D01*
X85130D01*
Y308030D01*
X84940D01*
Y307650D01*
X85130D01*
Y307460D01*
X85510D01*
Y307650D01*
X85699D01*
Y308409D01*
X85889D01*
Y308978D01*
X86079D01*
Y309737D01*
X86269D01*
Y310306D01*
X86458D01*
Y310875D01*
X86648D01*
Y311634D01*
X86838D01*
Y312014D01*
X87407D01*
Y311824D01*
X88166D01*
Y311634D01*
X88545D01*
Y311445D01*
X88925D01*
Y311255D01*
X88355D01*
Y311445D01*
X87786D01*
Y311634D01*
X87027D01*
Y311255D01*
X86838D01*
Y310686D01*
X86648D01*
Y309927D01*
X86458D01*
Y309358D01*
X86269D01*
Y308789D01*
X86079D01*
Y308030D01*
X85889D01*
Y307271D01*
X86458D01*
Y307081D01*
X87217D01*
Y306891D01*
X88166D01*
Y306702D01*
X88735D01*
Y306891D01*
X89494D01*
Y307081D01*
X89873D01*
Y307271D01*
X90063D01*
Y307460D01*
X90253D01*
Y307650D01*
X90632D01*
Y307840D01*
X90822D01*
Y308030D01*
X91011D01*
Y307650D01*
X91201D01*
Y306512D01*
X91391D01*
Y305943D01*
X91581D01*
Y305374D01*
X91770D01*
Y305184D01*
X91960D01*
Y304804D01*
X91391D01*
Y304994D01*
X90822D01*
Y305184D01*
X90253D01*
Y305374D01*
X89494D01*
Y305563D01*
X88925D01*
Y305753D01*
X88355D01*
Y305943D01*
X87786D01*
Y306133D01*
X87027D01*
Y306322D01*
X86458D01*
Y306512D01*
X85889D01*
Y306702D01*
X85130D01*
Y306891D01*
X84561D01*
Y307081D01*
X83992D01*
Y307271D01*
X83233D01*
Y307460D01*
X82664D01*
Y307650D01*
X82095D01*
Y307840D01*
X81525D01*
Y308030D01*
X81905D01*
Y308219D01*
X82474D01*
Y308409D01*
X83043D01*
Y308789D01*
X83233D01*
Y309358D01*
X83423D01*
Y309737D01*
Y309927D01*
X83612D01*
Y310686D01*
X83802D01*
Y311255D01*
X83992D01*
Y311824D01*
X84182D01*
Y312583D01*
X82664D01*
Y312773D01*
X82854D01*
Y312962D01*
X84182D01*
Y312773D01*
X84371D01*
Y313342D01*
X83612D01*
Y313531D01*
X83233D01*
Y313342D01*
X82474D01*
Y313531D01*
X82664D01*
Y313721D01*
X82854D01*
Y313911D01*
X83233D01*
Y314101D01*
X84751D01*
Y314480D01*
X84940D01*
Y315239D01*
X85130D01*
Y315808D01*
X85320D01*
Y316567D01*
X85510D01*
Y317136D01*
X85699D01*
Y318085D01*
X85510D01*
Y318464D01*
X85320D01*
Y318654D01*
X85130D01*
Y318844D01*
X84940D01*
Y319223D01*
X84751D01*
Y319413D01*
X84940D01*
Y319223D01*
D02*
G37*
G36*
X94995Y315429D02*
X94806D01*
Y315239D01*
X94616D01*
Y315049D01*
X94237D01*
Y314860D01*
X94047D01*
Y314670D01*
X93857D01*
Y314480D01*
X93667D01*
Y314290D01*
X93478D01*
Y314101D01*
X93288D01*
Y313911D01*
X93098D01*
Y313721D01*
X92909D01*
Y313531D01*
X92719D01*
Y313911D01*
X92909D01*
Y314101D01*
X93098D01*
Y314290D01*
X93288D01*
Y314480D01*
X93478D01*
Y314670D01*
X93667D01*
Y314860D01*
X93857D01*
Y315049D01*
X94047D01*
Y315239D01*
X94426D01*
Y315429D01*
X94616D01*
Y315618D01*
X94995D01*
Y315429D01*
D02*
G37*
G36*
X82474Y313152D02*
X82284D01*
Y313342D01*
X82474D01*
Y313152D01*
D02*
G37*
G36*
X52119Y312962D02*
X51550D01*
Y313152D01*
X52119D01*
Y312962D01*
D02*
G37*
G36*
X52688Y312773D02*
X52309D01*
Y312962D01*
X52688D01*
Y312773D01*
D02*
G37*
G36*
X91391D02*
X91201D01*
Y312204D01*
X91011D01*
Y311445D01*
X90822D01*
Y310875D01*
X90632D01*
Y310306D01*
X90442D01*
Y309547D01*
X90063D01*
Y309927D01*
X90253D01*
Y310496D01*
X90442D01*
Y310686D01*
Y311255D01*
X90632D01*
Y311824D01*
X90822D01*
Y312583D01*
X91011D01*
Y313152D01*
X91201D01*
Y313531D01*
X91391D01*
Y312773D01*
D02*
G37*
G36*
X99359Y312962D02*
X100497D01*
Y312773D01*
X101256D01*
Y312583D01*
X101636D01*
Y312393D01*
X102205D01*
Y312204D01*
X102584D01*
Y312014D01*
X102964D01*
Y311824D01*
X103343D01*
Y311634D01*
X103723D01*
Y311445D01*
X103912D01*
Y311255D01*
X104292D01*
Y311065D01*
X104481D01*
Y310875D01*
X104671D01*
Y310686D01*
X104861D01*
Y310496D01*
X105240D01*
Y310117D01*
X105430D01*
Y309927D01*
X105620D01*
Y309737D01*
X105809D01*
Y309547D01*
X105999D01*
Y309168D01*
X106189D01*
Y308789D01*
X106379D01*
Y308409D01*
X106568D01*
Y307840D01*
X106758D01*
Y307081D01*
X106568D01*
Y306322D01*
X106379D01*
Y306133D01*
X106189D01*
Y305753D01*
X105809D01*
Y305563D01*
X105620D01*
Y305374D01*
X105240D01*
Y305184D01*
X104671D01*
Y304994D01*
X102964D01*
Y305184D01*
X102395D01*
Y305374D01*
X101825D01*
Y304994D01*
X101636D01*
Y303476D01*
X101446D01*
Y300631D01*
X101636D01*
Y299303D01*
X101825D01*
Y299113D01*
Y298923D01*
Y298354D01*
X102015D01*
Y297975D01*
X101825D01*
Y298164D01*
X101067D01*
Y298354D01*
X99928D01*
Y298544D01*
X98600D01*
Y298734D01*
X98790D01*
Y299113D01*
X98980D01*
Y299682D01*
X99169D01*
Y300061D01*
X99359D01*
Y300631D01*
X99549D01*
Y301200D01*
X99739D01*
Y301769D01*
X99928D01*
Y302338D01*
X100118D01*
Y303097D01*
X100308D01*
Y303856D01*
X100497D01*
Y304994D01*
X100308D01*
Y305184D01*
X100687D01*
Y305753D01*
X100497D01*
Y305943D01*
X100118D01*
Y306133D01*
X99739D01*
Y306322D01*
X99359D01*
Y306512D01*
X98980D01*
Y306702D01*
X98411D01*
Y306512D01*
X98221D01*
Y306322D01*
X98031D01*
Y305943D01*
X97841D01*
Y305753D01*
X97652D01*
Y305374D01*
X97462D01*
Y305184D01*
X97272D01*
Y304804D01*
X97083D01*
Y304615D01*
X96893D01*
Y304235D01*
X96703D01*
Y303856D01*
X96513D01*
Y303666D01*
X96324D01*
Y303287D01*
X96134D01*
Y303097D01*
X96324D01*
Y302338D01*
X96513D01*
Y301959D01*
X96134D01*
Y302148D01*
X95944D01*
Y302338D01*
X95565D01*
Y302528D01*
X95375D01*
Y302718D01*
X94995D01*
Y302907D01*
X94806D01*
Y303097D01*
X94426D01*
Y303287D01*
X94047D01*
Y303476D01*
X93857D01*
Y303666D01*
X93478D01*
Y303856D01*
X93288D01*
Y304046D01*
X92719D01*
Y303856D01*
X92529D01*
Y303666D01*
X92150D01*
Y303856D01*
X91581D01*
Y304046D01*
X90822D01*
Y304235D01*
X90253D01*
Y304425D01*
X89683D01*
Y304615D01*
X88925D01*
Y304804D01*
X88355D01*
Y304994D01*
X87786D01*
Y305184D01*
X87217D01*
Y305374D01*
X86458D01*
Y305563D01*
X85889D01*
Y305753D01*
X85320D01*
Y305943D01*
X84561D01*
Y306133D01*
X83992D01*
Y306322D01*
X83423D01*
Y306512D01*
X82664D01*
Y306702D01*
X82095D01*
Y306891D01*
X81905D01*
Y307081D01*
X82474D01*
Y306891D01*
X83043D01*
Y306702D01*
X83612D01*
Y306512D01*
X84371D01*
Y306322D01*
X84940D01*
Y306133D01*
X85510D01*
Y305943D01*
X86079D01*
Y305753D01*
X86838D01*
Y305563D01*
X87407D01*
Y305374D01*
X87976D01*
Y305184D01*
X88735D01*
Y304994D01*
X89304D01*
Y304804D01*
X89873D01*
Y304615D01*
X90632D01*
Y304425D01*
X91201D01*
Y304235D01*
X91770D01*
Y304046D01*
X92529D01*
Y304235D01*
X92719D01*
Y304804D01*
X92529D01*
Y304994D01*
X92339D01*
Y305374D01*
X92150D01*
Y305943D01*
X91960D01*
Y306322D01*
X91770D01*
Y307271D01*
X91581D01*
Y307460D01*
X91960D01*
Y306702D01*
X92150D01*
Y306133D01*
X92339D01*
Y305563D01*
X92529D01*
Y305374D01*
X92719D01*
Y304994D01*
X92909D01*
Y304615D01*
X93098D01*
Y304235D01*
X94426D01*
Y304425D01*
X94806D01*
Y304804D01*
X94995D01*
Y304994D01*
X95185D01*
Y305374D01*
X95375D01*
Y305753D01*
X95565D01*
Y305943D01*
X95754D01*
Y306322D01*
X95944D01*
Y306512D01*
X96134D01*
Y306891D01*
X96324D01*
Y307081D01*
X95944D01*
Y307271D01*
X95375D01*
Y307460D01*
X95185D01*
Y307650D01*
X95375D01*
Y307460D01*
X95944D01*
Y307271D01*
X96513D01*
Y307460D01*
X96703D01*
Y307650D01*
X96513D01*
Y307840D01*
X96134D01*
Y308030D01*
X95565D01*
Y308219D01*
X95375D01*
Y308409D01*
X95565D01*
Y308599D01*
X95754D01*
Y308789D01*
X95944D01*
Y308978D01*
X96324D01*
Y308789D01*
X96513D01*
Y308599D01*
X96703D01*
Y308409D01*
X97272D01*
Y308789D01*
X97462D01*
Y308978D01*
X97652D01*
Y309168D01*
X97841D01*
Y309547D01*
X98031D01*
Y309927D01*
X98221D01*
Y310117D01*
X98411D01*
Y310496D01*
X98600D01*
Y310686D01*
X98790D01*
Y311065D01*
X98980D01*
Y311255D01*
X99169D01*
Y311634D01*
X99359D01*
Y311824D01*
X99549D01*
Y312393D01*
X99359D01*
Y312773D01*
X99169D01*
Y313152D01*
X99359D01*
Y312962D01*
D02*
G37*
G36*
X74885Y319792D02*
X76213D01*
Y319603D01*
X76782D01*
Y319413D01*
X77352D01*
Y319223D01*
X77731D01*
Y319033D01*
X77921D01*
Y318844D01*
X78111D01*
Y318654D01*
X78490D01*
Y318274D01*
X78870D01*
Y317895D01*
X79059D01*
Y317705D01*
X79249D01*
Y317326D01*
X79439D01*
Y316947D01*
X79628D01*
Y316377D01*
X79818D01*
Y315618D01*
X80008D01*
Y312204D01*
X79818D01*
Y311445D01*
X79628D01*
Y310686D01*
X79439D01*
Y310496D01*
X79249D01*
Y310117D01*
X79059D01*
Y309737D01*
X78870D01*
Y309547D01*
X78680D01*
Y309358D01*
X78490D01*
Y309168D01*
X78300D01*
Y308978D01*
X78111D01*
Y308789D01*
X77731D01*
Y308599D01*
X77541D01*
Y308409D01*
X77162D01*
Y308219D01*
X76593D01*
Y308030D01*
X75644D01*
Y307840D01*
X70332D01*
Y307271D01*
X75075D01*
Y307460D01*
X76403D01*
Y307650D01*
X77162D01*
Y307840D01*
X77541D01*
Y308030D01*
X77921D01*
Y308219D01*
X78300D01*
Y308409D01*
X78490D01*
Y308599D01*
X78680D01*
Y308789D01*
X79059D01*
Y308978D01*
X79249D01*
Y309168D01*
X79439D01*
Y309547D01*
X79628D01*
Y309737D01*
X79818D01*
Y310117D01*
X80008D01*
Y310496D01*
X80197D01*
Y311065D01*
X80387D01*
Y311634D01*
X80577D01*
Y312773D01*
X80767D01*
Y314860D01*
X80577D01*
Y315998D01*
X80387D01*
Y316567D01*
X80197D01*
Y316947D01*
X80008D01*
Y317326D01*
X79818D01*
Y317705D01*
X79628D01*
Y317895D01*
X79439D01*
Y318085D01*
X79249D01*
Y318274D01*
X79059D01*
Y318464D01*
X79249D01*
Y318274D01*
X79628D01*
Y318085D01*
X79818D01*
Y317705D01*
X80008D01*
Y317516D01*
X80197D01*
Y317136D01*
X80387D01*
Y316757D01*
X80577D01*
Y316188D01*
X80767D01*
Y315429D01*
X80956D01*
Y312204D01*
X80767D01*
Y311445D01*
X80577D01*
Y310686D01*
X80387D01*
Y310306D01*
X80197D01*
Y309927D01*
X80008D01*
Y309547D01*
X79818D01*
Y309168D01*
X79628D01*
Y308978D01*
X79439D01*
Y308789D01*
X79249D01*
Y308599D01*
X79059D01*
Y308409D01*
X78870D01*
Y308219D01*
X78490D01*
Y308030D01*
X78300D01*
Y307840D01*
X77731D01*
Y307650D01*
X77352D01*
Y307460D01*
X76593D01*
Y307271D01*
X75644D01*
Y307081D01*
X69763D01*
Y306891D01*
X69004D01*
Y306702D01*
X68435D01*
Y306512D01*
X67676D01*
Y306322D01*
X67107D01*
Y306133D01*
X66348D01*
Y305943D01*
X65779D01*
Y305753D01*
X65020D01*
Y305563D01*
X64451D01*
Y305374D01*
X63692D01*
Y305184D01*
X63123D01*
Y304994D01*
X62364D01*
Y304804D01*
X61795D01*
Y304615D01*
X61036D01*
Y304425D01*
X60467D01*
Y304235D01*
X60087D01*
Y304615D01*
X60846D01*
Y304804D01*
X61415D01*
Y304994D01*
X61985D01*
Y305184D01*
X62743D01*
Y305374D01*
X63313D01*
Y305563D01*
X64071D01*
Y305753D01*
X64830D01*
Y305943D01*
X65399D01*
Y306133D01*
X66158D01*
Y306322D01*
X66727D01*
Y306512D01*
X67297D01*
Y306702D01*
X68056D01*
Y306891D01*
X68814D01*
Y307081D01*
X69384D01*
Y307271D01*
X69953D01*
Y307650D01*
X70142D01*
Y307840D01*
X69763D01*
Y308030D01*
X69953D01*
Y308219D01*
X69573D01*
Y308409D01*
X69384D01*
Y308599D01*
X69194D01*
Y308789D01*
X69004D01*
Y308978D01*
X68625D01*
Y309168D01*
X68435D01*
Y309358D01*
X68245D01*
Y309737D01*
X68056D01*
Y309927D01*
X67866D01*
Y310117D01*
X67676D01*
Y310306D01*
X68056D01*
Y310117D01*
X68245D01*
Y309927D01*
X68435D01*
Y309737D01*
X68625D01*
Y309547D01*
X68814D01*
Y309358D01*
X69004D01*
Y309168D01*
X69194D01*
Y308978D01*
X69384D01*
Y308789D01*
X69573D01*
Y308599D01*
X69763D01*
Y308409D01*
X70522D01*
Y308599D01*
X70711D01*
Y308789D01*
X70901D01*
Y318844D01*
X70711D01*
Y319033D01*
X70522D01*
Y319223D01*
X70332D01*
Y319413D01*
X70142D01*
Y319603D01*
X69953D01*
Y319982D01*
X74885D01*
Y319792D01*
D02*
G37*
G36*
X107327Y306512D02*
X107138D01*
Y306702D01*
Y306891D01*
X107327D01*
Y306512D01*
D02*
G37*
G36*
X107138Y305943D02*
X106948D01*
Y306322D01*
X107138D01*
Y305943D01*
D02*
G37*
G36*
X106948Y305563D02*
X106758D01*
Y305753D01*
Y305943D01*
X106948D01*
Y305563D01*
D02*
G37*
G36*
X98790Y305753D02*
X99169D01*
Y305563D01*
X98790D01*
Y305753D01*
X98600D01*
Y305943D01*
X98790D01*
Y305753D01*
D02*
G37*
G36*
X98600Y305563D02*
Y305374D01*
X98411D01*
Y305753D01*
X98600D01*
Y305563D01*
D02*
G37*
G36*
X99739Y305374D02*
X100118D01*
Y305184D01*
X99739D01*
Y305374D01*
X99359D01*
Y305563D01*
X99739D01*
Y305374D01*
D02*
G37*
G36*
X60656Y317326D02*
X60467D01*
Y317136D01*
X60277D01*
Y316757D01*
X60087D01*
Y316567D01*
X59898D01*
Y316188D01*
X59708D01*
Y315998D01*
X59898D01*
Y315429D01*
X60087D01*
Y314670D01*
X60277D01*
Y314101D01*
X60467D01*
Y313342D01*
X60656D01*
Y312773D01*
X60846D01*
Y312014D01*
X61036D01*
Y311445D01*
X61226D01*
Y310686D01*
X61415D01*
Y310117D01*
X61605D01*
Y309358D01*
X61795D01*
Y308789D01*
X61985D01*
Y308030D01*
X62174D01*
Y307460D01*
X62364D01*
Y306702D01*
X62554D01*
Y306512D01*
X62743D01*
Y306702D01*
X62933D01*
Y307271D01*
X62743D01*
Y308030D01*
X62554D01*
Y308599D01*
X62364D01*
Y309358D01*
X62174D01*
Y309927D01*
X61985D01*
Y310686D01*
X61795D01*
Y311255D01*
X61605D01*
Y312014D01*
X61415D01*
Y312583D01*
X61226D01*
Y313342D01*
X61036D01*
Y313911D01*
X60846D01*
Y314670D01*
X60656D01*
Y315239D01*
X60467D01*
Y315998D01*
X60277D01*
Y316377D01*
X60467D01*
Y316757D01*
X60656D01*
Y316947D01*
X60846D01*
Y317326D01*
X61036D01*
Y317516D01*
X61226D01*
Y317136D01*
X61036D01*
Y316757D01*
X60846D01*
Y316377D01*
X60656D01*
Y315618D01*
X60846D01*
Y315049D01*
X61036D01*
Y314290D01*
X61226D01*
Y313531D01*
X61415D01*
Y312962D01*
X61605D01*
Y312204D01*
X61795D01*
Y311634D01*
X61985D01*
Y311065D01*
X62174D01*
Y310306D01*
X62364D01*
Y309547D01*
X62554D01*
Y308978D01*
X62743D01*
Y308409D01*
X62933D01*
Y307650D01*
X63123D01*
Y307081D01*
X63313D01*
Y306702D01*
X63502D01*
Y306891D01*
X64261D01*
Y307081D01*
X64830D01*
Y307271D01*
X65210D01*
Y307460D01*
X65399D01*
Y307650D01*
X65779D01*
Y307840D01*
X65969D01*
Y308030D01*
X66158D01*
Y308219D01*
X66348D01*
Y308599D01*
X66538D01*
Y309358D01*
X66727D01*
Y310496D01*
X66917D01*
Y310117D01*
X67107D01*
Y309927D01*
X67297D01*
Y309737D01*
X67486D01*
Y309358D01*
X67676D01*
Y309168D01*
X67866D01*
Y308978D01*
X68056D01*
Y308789D01*
X68245D01*
Y308599D01*
X68435D01*
Y308409D01*
X68625D01*
Y308219D01*
X69004D01*
Y308030D01*
X69194D01*
Y307840D01*
X69384D01*
Y307650D01*
X68814D01*
Y307460D01*
X68245D01*
Y307271D01*
X67486D01*
Y307081D01*
X66917D01*
Y306891D01*
X66158D01*
Y306702D01*
X65399D01*
Y306512D01*
X64830D01*
Y306322D01*
X64071D01*
Y306133D01*
X63502D01*
Y305943D01*
X62743D01*
Y305753D01*
X62174D01*
Y305563D01*
X61605D01*
Y305374D01*
X60846D01*
Y305184D01*
X60087D01*
Y304994D01*
X59518D01*
Y305184D01*
X59708D01*
Y305374D01*
X59898D01*
Y305563D01*
X60087D01*
Y305943D01*
X60277D01*
Y306133D01*
X60467D01*
Y306891D01*
X60277D01*
Y307460D01*
X60087D01*
Y308030D01*
X59898D01*
Y308789D01*
X59708D01*
Y309358D01*
X59518D01*
Y310117D01*
X59328D01*
Y310875D01*
X59139D01*
Y311445D01*
X58949D01*
Y312014D01*
X58759D01*
Y312773D01*
X58570D01*
Y313342D01*
X58380D01*
Y314101D01*
X58190D01*
Y314860D01*
X58000D01*
Y315429D01*
X57811D01*
Y315808D01*
X57431D01*
Y315998D01*
X57052D01*
Y316188D01*
X56672D01*
Y316377D01*
X56293D01*
Y316567D01*
X56862D01*
Y316757D01*
X57431D01*
Y316947D01*
X58190D01*
Y317136D01*
X58759D01*
Y317326D01*
X59518D01*
Y317516D01*
X60087D01*
Y317705D01*
X60656D01*
Y317326D01*
D02*
G37*
G36*
X98411Y304994D02*
X98221D01*
Y304804D01*
X98031D01*
Y304994D01*
Y305184D01*
X98221D01*
Y305374D01*
X98411D01*
Y304994D01*
D02*
G37*
G36*
X106758Y305184D02*
X106568D01*
Y304994D01*
X106379D01*
Y304804D01*
X106189D01*
Y304615D01*
X105809D01*
Y304425D01*
X105430D01*
Y304235D01*
X102584D01*
Y303666D01*
X102395D01*
Y304615D01*
X102774D01*
Y304425D01*
X105240D01*
Y304615D01*
X105620D01*
Y304804D01*
X105999D01*
Y304994D01*
X106189D01*
Y305184D01*
X106379D01*
Y305374D01*
X106568D01*
Y305563D01*
X106758D01*
Y305184D01*
D02*
G37*
G36*
X53068Y312583D02*
X53447D01*
Y312393D01*
X53827D01*
Y312204D01*
X54016D01*
Y312014D01*
X54206D01*
Y311824D01*
X54585D01*
Y311634D01*
X54775D01*
Y311445D01*
X54965D01*
Y311255D01*
X55155D01*
Y310875D01*
X55344D01*
Y310686D01*
X55534D01*
Y310496D01*
X55724D01*
Y310306D01*
X55914D01*
Y309927D01*
X56103D01*
Y309737D01*
X56293D01*
Y309547D01*
Y309168D01*
X56483D01*
Y308978D01*
X56672D01*
Y308409D01*
X56862D01*
Y308219D01*
Y308030D01*
X57052D01*
Y307271D01*
X57242D01*
Y304615D01*
Y304425D01*
X57052D01*
Y307271D01*
X56862D01*
Y307650D01*
Y307840D01*
Y308030D01*
X56672D01*
Y308409D01*
X56483D01*
Y308978D01*
X56293D01*
Y309168D01*
X56103D01*
Y309547D01*
X55914D01*
Y309927D01*
X55724D01*
Y310117D01*
X55534D01*
Y310306D01*
Y310496D01*
X55344D01*
Y310686D01*
X55155D01*
Y310875D01*
X54965D01*
Y311065D01*
X54775D01*
Y311255D01*
X54585D01*
Y311445D01*
X54396D01*
Y311634D01*
X54206D01*
Y311824D01*
X54016D01*
Y312014D01*
X53637D01*
Y312204D01*
X53447D01*
Y312393D01*
X53068D01*
Y312583D01*
X52878D01*
Y312773D01*
X53068D01*
Y312583D01*
D02*
G37*
G36*
X98031Y304615D02*
Y304425D01*
X97841D01*
Y304235D01*
X97652D01*
Y304615D01*
X97841D01*
Y304804D01*
X98031D01*
Y304615D01*
D02*
G37*
G36*
X97652Y303856D02*
X97462D01*
Y303666D01*
X97272D01*
Y303856D01*
Y304046D01*
X97462D01*
Y304235D01*
X97652D01*
Y303856D01*
D02*
G37*
G36*
X97272Y303287D02*
X97083D01*
Y303097D01*
X96893D01*
Y303476D01*
X97083D01*
Y303666D01*
X97272D01*
Y303287D01*
D02*
G37*
G36*
X57052Y303666D02*
X56862D01*
Y303287D01*
X56672D01*
Y302907D01*
X56483D01*
Y302718D01*
X56293D01*
Y303097D01*
X56483D01*
Y303476D01*
X56672D01*
Y303666D01*
Y303856D01*
X56862D01*
Y304425D01*
X57052D01*
Y303666D01*
D02*
G37*
G36*
X39977Y305374D02*
X40167D01*
Y304804D01*
X40356D01*
Y304235D01*
X40546D01*
Y303856D01*
X40736D01*
Y303287D01*
X40926D01*
Y302907D01*
X41115D01*
Y302338D01*
X40926D01*
Y302718D01*
X40736D01*
Y303097D01*
X40546D01*
Y303666D01*
X40356D01*
Y304235D01*
X40167D01*
Y304615D01*
X39977D01*
Y305184D01*
X39787D01*
Y305374D01*
Y305563D01*
X39977D01*
Y305374D01*
D02*
G37*
G36*
X102395Y303476D02*
Y302148D01*
X102205D01*
Y303666D01*
X102395D01*
Y303476D01*
D02*
G37*
G36*
X39408Y304615D02*
X39598D01*
Y304046D01*
X39787D01*
Y303666D01*
X39977D01*
Y303287D01*
X40167D01*
Y302907D01*
X40356D01*
Y302528D01*
X40546D01*
Y302148D01*
X39977D01*
Y302338D01*
X39598D01*
Y302528D01*
X38080D01*
Y302338D01*
X37511D01*
Y302148D01*
X37131D01*
Y301959D01*
X36942D01*
Y301769D01*
X36752D01*
Y301579D01*
X36562D01*
Y301390D01*
X36372D01*
Y301200D01*
X36183D01*
Y300820D01*
X35993D01*
Y300441D01*
X35803D01*
Y298923D01*
X35993D01*
Y298544D01*
X36183D01*
Y298354D01*
X36372D01*
Y298164D01*
X36562D01*
Y297975D01*
X37131D01*
Y297785D01*
X37890D01*
Y297975D01*
X38459D01*
Y298164D01*
X38839D01*
Y298354D01*
X39218D01*
Y298544D01*
X39408D01*
Y298734D01*
X39787D01*
Y298923D01*
X39977D01*
Y299113D01*
X40356D01*
Y299303D01*
X40546D01*
Y299492D01*
X40736D01*
Y299682D01*
X41115D01*
Y299872D01*
X41305D01*
Y300061D01*
X41685D01*
Y300251D01*
X41874D01*
Y300441D01*
X42254D01*
Y300631D01*
X42823D01*
Y300820D01*
X43582D01*
Y301010D01*
X44341D01*
Y300820D01*
X45100D01*
Y300631D01*
X45479D01*
Y300441D01*
X45669D01*
Y300251D01*
X46048D01*
Y300061D01*
X46238D01*
Y299872D01*
X46427D01*
Y299492D01*
X46617D01*
Y299303D01*
X46807D01*
Y298923D01*
X46997D01*
Y297975D01*
X47186D01*
Y296836D01*
X46997D01*
Y296077D01*
X46807D01*
Y295698D01*
X46617D01*
Y295319D01*
X46427D01*
Y295129D01*
X46238D01*
Y294749D01*
X46048D01*
Y294560D01*
X45858D01*
Y294370D01*
X45669D01*
Y294180D01*
X45479D01*
Y293990D01*
X45289D01*
Y293801D01*
X45100D01*
Y293611D01*
X44910D01*
Y293421D01*
X44720D01*
Y293232D01*
X44530D01*
Y293042D01*
X44151D01*
Y292852D01*
X43961D01*
Y292663D01*
X43582D01*
Y292473D01*
X43392D01*
Y292283D01*
X43202D01*
Y292093D01*
X42823D01*
Y291904D01*
X42633D01*
Y291714D01*
X42443D01*
Y291524D01*
X42254D01*
Y291334D01*
X42064D01*
Y291145D01*
X41874D01*
Y290765D01*
X41685D01*
Y290196D01*
X41495D01*
Y290576D01*
X41305D01*
Y291334D01*
X41115D01*
Y291904D01*
X40926D01*
Y292283D01*
X40736D01*
Y292852D01*
X40546D01*
Y293232D01*
X40356D01*
Y293421D01*
X40167D01*
Y293801D01*
X40356D01*
Y293611D01*
X40736D01*
Y293421D01*
X41305D01*
Y293232D01*
X43202D01*
Y293421D01*
X43772D01*
Y293611D01*
X43961D01*
Y293801D01*
X43582D01*
Y293990D01*
X43961D01*
Y293801D01*
X44341D01*
Y293990D01*
X44530D01*
Y294180D01*
X44720D01*
Y294370D01*
X44910D01*
Y294560D01*
X45100D01*
Y294749D01*
X45289D01*
Y294939D01*
X45479D01*
Y295129D01*
X45669D01*
Y295508D01*
X45858D01*
Y295888D01*
X46048D01*
Y296267D01*
X46238D01*
Y297405D01*
X46048D01*
Y297975D01*
X45858D01*
Y298164D01*
X45669D01*
Y298354D01*
X45479D01*
Y298544D01*
X45289D01*
Y298734D01*
X44720D01*
Y298923D01*
X43392D01*
Y298734D01*
X43013D01*
Y298544D01*
X42633D01*
Y298354D01*
X42254D01*
Y298164D01*
X42064D01*
Y297975D01*
X41685D01*
Y297785D01*
X41495D01*
Y297595D01*
X41115D01*
Y297405D01*
X40926D01*
Y297216D01*
X40736D01*
Y297026D01*
X40356D01*
Y296836D01*
X40167D01*
Y296646D01*
X39977D01*
Y296457D01*
X39598D01*
Y296267D01*
X39408D01*
Y296077D01*
X38839D01*
Y295888D01*
X38270D01*
Y295698D01*
X37131D01*
Y295888D01*
X36562D01*
Y296077D01*
X36183D01*
Y296267D01*
X35803D01*
Y296457D01*
X35614D01*
Y296646D01*
X35424D01*
Y296836D01*
X35234D01*
Y297216D01*
X35044D01*
Y297595D01*
X34855D01*
Y297975D01*
X34665D01*
Y299872D01*
X34855D01*
Y300441D01*
X35044D01*
Y300820D01*
X35234D01*
Y301010D01*
X35424D01*
Y301390D01*
X35614D01*
Y301579D01*
X35803D01*
Y301769D01*
X35993D01*
Y301959D01*
X36183D01*
Y302148D01*
X36372D01*
Y302338D01*
X36562D01*
Y302528D01*
X36752D01*
Y302718D01*
X36942D01*
Y302907D01*
X37131D01*
Y303097D01*
X37321D01*
Y303287D01*
X37701D01*
Y303476D01*
X37890D01*
Y303666D01*
X38080D01*
Y303856D01*
X38459D01*
Y304046D01*
X38649D01*
Y304235D01*
X38839D01*
Y304425D01*
X39028D01*
Y304804D01*
X39218D01*
Y305184D01*
X39408D01*
Y304615D01*
D02*
G37*
G36*
X96893Y301959D02*
X96703D01*
Y303097D01*
X96893D01*
Y301959D01*
D02*
G37*
G36*
X39408Y302148D02*
X38649D01*
Y301959D01*
X38270D01*
Y301769D01*
X37890D01*
Y301579D01*
X37511D01*
Y301769D01*
X37701D01*
Y301959D01*
X38080D01*
Y302148D01*
X38459D01*
Y302338D01*
X39408D01*
Y302148D01*
D02*
G37*
G36*
X112450Y301390D02*
X112070D01*
Y301579D01*
X112450D01*
Y301390D01*
D02*
G37*
G36*
X56293Y302338D02*
X56103D01*
Y302148D01*
X55914D01*
Y301959D01*
X55724D01*
Y301769D01*
X55534D01*
Y301579D01*
X55344D01*
Y301390D01*
X54965D01*
Y301579D01*
X55155D01*
Y301769D01*
X55344D01*
Y301959D01*
X55534D01*
Y302148D01*
X55724D01*
Y302338D01*
X55914D01*
Y302528D01*
X56103D01*
Y302718D01*
X56293D01*
Y302338D01*
D02*
G37*
G36*
X44910Y301390D02*
X44341D01*
Y301579D01*
X44910D01*
Y301390D01*
D02*
G37*
G36*
X37511D02*
X37321D01*
Y301200D01*
X37131D01*
Y301390D01*
Y301579D01*
X37511D01*
Y301390D01*
D02*
G37*
G36*
X112070Y301200D02*
X111881D01*
Y301010D01*
X111691D01*
Y301390D01*
X112070D01*
Y301200D01*
D02*
G37*
G36*
X54965D02*
X54775D01*
Y301010D01*
X54396D01*
Y301200D01*
X54585D01*
Y301390D01*
X54965D01*
Y301200D01*
D02*
G37*
G36*
X37131Y301010D02*
X36942D01*
Y301200D01*
X37131D01*
Y301010D01*
D02*
G37*
G36*
X54396Y300820D02*
X54016D01*
Y301010D01*
X54396D01*
Y300820D01*
D02*
G37*
G36*
X111691D02*
Y300631D01*
X111501D01*
Y301010D01*
X111691D01*
Y300820D01*
D02*
G37*
G36*
X54016Y300631D02*
X53637D01*
Y300820D01*
X54016D01*
Y300631D01*
D02*
G37*
G36*
X50791Y312583D02*
X51740D01*
Y312393D01*
X52119D01*
Y312204D01*
X52498D01*
Y312014D01*
X52878D01*
Y311824D01*
X53068D01*
Y311634D01*
X53447D01*
Y311445D01*
X53637D01*
Y311255D01*
X53827D01*
Y311065D01*
X54016D01*
Y310875D01*
X54206D01*
Y310686D01*
X54396D01*
Y310496D01*
X54585D01*
Y310306D01*
X54775D01*
Y309927D01*
X54965D01*
Y309737D01*
X55155D01*
Y309358D01*
X55344D01*
Y309168D01*
X55534D01*
Y308789D01*
X55724D01*
Y308409D01*
X55914D01*
Y308030D01*
X56103D01*
Y307460D01*
X56293D01*
Y306702D01*
X56483D01*
Y304994D01*
X56293D01*
Y304046D01*
X56103D01*
Y303666D01*
X55914D01*
Y303287D01*
X55724D01*
Y303097D01*
X55534D01*
Y302718D01*
X55344D01*
Y302528D01*
X55155D01*
Y302338D01*
X54965D01*
Y302148D01*
X54775D01*
Y301959D01*
X54396D01*
Y301769D01*
X54206D01*
Y301579D01*
X54016D01*
Y301390D01*
X53637D01*
Y301200D01*
X53257D01*
Y301010D01*
X52688D01*
Y300820D01*
X51929D01*
Y300631D01*
X50222D01*
Y300820D01*
X49463D01*
Y301010D01*
X48894D01*
Y301200D01*
X48514D01*
Y301390D01*
X48325D01*
Y301579D01*
X47945D01*
Y301769D01*
X47756D01*
Y301959D01*
X47566D01*
Y302148D01*
X47186D01*
Y302528D01*
X46997D01*
Y302718D01*
X46807D01*
Y302907D01*
X46617D01*
Y303097D01*
X46427D01*
Y303287D01*
X46238D01*
Y303666D01*
X46048D01*
Y304046D01*
X45858D01*
Y304235D01*
X45669D01*
Y304615D01*
X45479D01*
Y305184D01*
X45289D01*
Y305563D01*
X45100D01*
Y306512D01*
X44910D01*
Y308409D01*
X45100D01*
Y309168D01*
X45289D01*
Y309737D01*
X45479D01*
Y309927D01*
X45669D01*
Y310306D01*
X45858D01*
Y310496D01*
X46048D01*
Y310686D01*
X46238D01*
Y311065D01*
X46617D01*
Y311255D01*
X46807D01*
Y311445D01*
X46997D01*
Y311634D01*
X47186D01*
Y311824D01*
X47566D01*
Y312014D01*
X47756D01*
Y312204D01*
X48325D01*
Y312393D01*
X48704D01*
Y312583D01*
X49463D01*
Y312773D01*
X50791D01*
Y312583D01*
D02*
G37*
G36*
X93288Y303097D02*
X93667D01*
Y302907D01*
X93857D01*
Y302718D01*
X94237D01*
Y302528D01*
X94426D01*
Y302338D01*
X94806D01*
Y302148D01*
X94995D01*
Y301959D01*
X95375D01*
Y301769D01*
X95565D01*
Y301579D01*
X95944D01*
Y301390D01*
X96134D01*
Y301200D01*
X96513D01*
Y301010D01*
X96703D01*
Y300820D01*
X96893D01*
Y301769D01*
X97083D01*
Y301010D01*
X97272D01*
Y300820D01*
Y300631D01*
Y300441D01*
X97083D01*
Y300631D01*
X96703D01*
Y300820D01*
X96513D01*
Y301010D01*
X96134D01*
Y301200D01*
X95944D01*
Y301390D01*
X95565D01*
Y301579D01*
X95375D01*
Y301769D01*
X94995D01*
Y301959D01*
X94806D01*
Y302148D01*
X94426D01*
Y302338D01*
X94047D01*
Y302528D01*
X93857D01*
Y302718D01*
X93478D01*
Y302907D01*
X93288D01*
Y303097D01*
X93098D01*
Y303287D01*
X93288D01*
Y303097D01*
D02*
G37*
G36*
X53447Y300441D02*
X53068D01*
Y300631D01*
X53447D01*
Y300441D01*
D02*
G37*
G36*
X111501Y299682D02*
X111311D01*
Y299872D01*
Y300061D01*
Y300631D01*
X111501D01*
Y299682D01*
D02*
G37*
G36*
X102395Y300061D02*
Y299872D01*
Y299682D01*
X102205D01*
Y301200D01*
X102395D01*
Y300061D01*
D02*
G37*
G36*
X102584Y298734D02*
X102395D01*
Y299113D01*
Y299303D01*
Y299492D01*
X102584D01*
Y298734D01*
D02*
G37*
G36*
X113209Y301579D02*
X113778D01*
Y301390D01*
X113967D01*
Y301200D01*
X114157D01*
Y301010D01*
X114347D01*
Y300820D01*
X114537D01*
Y300631D01*
X114726D01*
Y300251D01*
X114916D01*
Y299872D01*
X115106D01*
Y298354D01*
X114916D01*
Y299682D01*
X114726D01*
Y300061D01*
X114537D01*
Y300251D01*
Y300441D01*
X114347D01*
Y300820D01*
X114157D01*
Y301010D01*
X113967D01*
Y301200D01*
X113588D01*
Y301390D01*
X113209D01*
Y301579D01*
X112450D01*
Y301769D01*
X113209D01*
Y301579D01*
D02*
G37*
G36*
X36942Y300631D02*
X36752D01*
Y300251D01*
X36562D01*
Y299492D01*
X36752D01*
Y299113D01*
X36942D01*
Y298734D01*
X37321D01*
Y298544D01*
X38649D01*
Y298354D01*
X37321D01*
Y298544D01*
X36942D01*
Y298734D01*
X36752D01*
Y298923D01*
X36562D01*
Y299303D01*
X36372D01*
Y300441D01*
X36562D01*
Y300820D01*
X36752D01*
Y301010D01*
X36942D01*
Y300631D01*
D02*
G37*
G36*
X102774Y298164D02*
X102584D01*
Y298544D01*
X102774D01*
Y298164D01*
D02*
G37*
G36*
X99169Y297785D02*
X98790D01*
Y297975D01*
X99169D01*
Y297785D01*
D02*
G37*
G36*
X100687Y297595D02*
X99359D01*
Y297785D01*
X100687D01*
Y297595D01*
D02*
G37*
G36*
X44341Y298354D02*
X43772D01*
Y298164D01*
X43392D01*
Y297975D01*
X43013D01*
Y297785D01*
X42823D01*
Y297595D01*
X42443D01*
Y297785D01*
X42633D01*
Y297975D01*
X42823D01*
Y298164D01*
X43202D01*
Y298354D01*
X43582D01*
Y298544D01*
X44341D01*
Y298354D01*
D02*
G37*
G36*
X106948Y297595D02*
X106758D01*
Y297405D01*
X106568D01*
Y297785D01*
X106948D01*
Y297595D01*
D02*
G37*
G36*
X112639Y303476D02*
X113209D01*
Y303287D01*
X113778D01*
Y303097D01*
X113967D01*
Y302907D01*
X114347D01*
Y302718D01*
X114537D01*
Y302528D01*
X114726D01*
Y302338D01*
X114916D01*
Y302148D01*
X115106D01*
Y301959D01*
X115295D01*
Y301579D01*
X115485D01*
Y301390D01*
X115675D01*
Y301010D01*
X115865D01*
Y300820D01*
X116054D01*
Y300441D01*
X116244D01*
Y300061D01*
X116434D01*
Y299682D01*
X116623D01*
Y299303D01*
X116813D01*
Y298923D01*
X117003D01*
Y298734D01*
X117193D01*
Y298544D01*
X117382D01*
Y298354D01*
X117572D01*
Y298164D01*
X117951D01*
Y297975D01*
X117193D01*
Y297785D01*
X116434D01*
Y297595D01*
X115675D01*
Y297405D01*
X115106D01*
Y297216D01*
X114726D01*
Y297405D01*
X114916D01*
Y297785D01*
X115106D01*
Y298164D01*
X115295D01*
Y298734D01*
X115485D01*
Y300061D01*
X115295D01*
Y300631D01*
X115106D01*
Y301010D01*
X114916D01*
Y301200D01*
X114726D01*
Y301390D01*
X114537D01*
Y301579D01*
X114347D01*
Y301769D01*
X114157D01*
Y301959D01*
X113967D01*
Y302148D01*
X113588D01*
Y302338D01*
X113019D01*
Y302528D01*
X112450D01*
Y302338D01*
X111881D01*
Y302148D01*
X111691D01*
Y301959D01*
X111501D01*
Y301769D01*
X111311D01*
Y301579D01*
X111122D01*
Y301010D01*
X110932D01*
Y300251D01*
X111122D01*
Y299492D01*
X111311D01*
Y299113D01*
X111501D01*
Y298734D01*
X111691D01*
Y298354D01*
X111881D01*
Y297975D01*
X112070D01*
Y297595D01*
X112260D01*
Y297216D01*
X112450D01*
Y296836D01*
X112639D01*
Y296457D01*
X112829D01*
Y295888D01*
X113019D01*
Y294939D01*
X113209D01*
Y293801D01*
X113019D01*
Y293232D01*
X112829D01*
Y292852D01*
X112639D01*
Y292663D01*
X112450D01*
Y292283D01*
X112260D01*
Y292093D01*
X111881D01*
Y291904D01*
X111691D01*
Y291714D01*
X111311D01*
Y291524D01*
X110932D01*
Y291334D01*
X108845D01*
Y291524D01*
X108466D01*
Y291714D01*
X107896D01*
Y291904D01*
X107707D01*
Y292093D01*
X107327D01*
Y292283D01*
X107138D01*
Y292473D01*
X106948D01*
Y292663D01*
X106758D01*
Y292852D01*
X106568D01*
Y293042D01*
X106379D01*
Y293232D01*
X106189D01*
Y293611D01*
X105999D01*
Y293801D01*
X105809D01*
Y294180D01*
X105620D01*
Y294370D01*
X105430D01*
Y294749D01*
X105240D01*
Y295129D01*
X105051D01*
Y295508D01*
X104861D01*
Y295888D01*
X104671D01*
Y296267D01*
X104481D01*
Y296646D01*
X104292D01*
Y296836D01*
X104102D01*
Y297216D01*
X103912D01*
Y297405D01*
X103533D01*
Y297595D01*
X103343D01*
Y297785D01*
X103153D01*
Y297975D01*
X102964D01*
Y298164D01*
X103153D01*
Y297975D01*
X103343D01*
Y298164D01*
X104481D01*
Y298354D01*
X105240D01*
Y298544D01*
X105809D01*
Y298734D01*
X106379D01*
Y298923D01*
X106568D01*
Y298544D01*
X106379D01*
Y298354D01*
X106189D01*
Y297975D01*
X105999D01*
Y297595D01*
X105809D01*
Y297026D01*
X105620D01*
Y295888D01*
X105809D01*
Y295129D01*
X105999D01*
Y294749D01*
X106189D01*
Y294370D01*
X106379D01*
Y294180D01*
X106568D01*
Y293801D01*
X106758D01*
Y293611D01*
X106948D01*
Y293421D01*
X107138D01*
Y293232D01*
X107327D01*
Y293042D01*
X107517D01*
Y292852D01*
X107896D01*
Y292663D01*
X108086D01*
Y292473D01*
X108655D01*
Y292283D01*
X109604D01*
Y292473D01*
X109983D01*
Y292663D01*
X110363D01*
Y292852D01*
X110553D01*
Y293042D01*
X110742D01*
Y293421D01*
X110932D01*
Y293801D01*
X111122D01*
Y295319D01*
X110932D01*
Y295888D01*
X110742D01*
Y296267D01*
X110553D01*
Y296646D01*
X110363D01*
Y297026D01*
X110173D01*
Y297405D01*
X109983D01*
Y297785D01*
X109794D01*
Y297975D01*
X109604D01*
Y298354D01*
X109414D01*
Y298923D01*
X109225D01*
Y299303D01*
X109035D01*
Y300061D01*
X108845D01*
Y301200D01*
X109035D01*
Y301769D01*
X109225D01*
Y302148D01*
X109414D01*
Y302338D01*
X109604D01*
Y302528D01*
X109794D01*
Y302718D01*
X109983D01*
Y302907D01*
X110173D01*
Y303097D01*
X110363D01*
Y303287D01*
X110742D01*
Y303476D01*
X111122D01*
Y303666D01*
X112639D01*
Y303476D01*
D02*
G37*
G36*
X102964Y297595D02*
X103153D01*
Y297216D01*
X103343D01*
Y296836D01*
X103533D01*
Y296646D01*
X103723D01*
Y296457D01*
X103912D01*
Y296077D01*
X104102D01*
Y295888D01*
X104292D01*
Y295508D01*
X104481D01*
Y295319D01*
Y295129D01*
X104671D01*
Y294749D01*
X104861D01*
Y294560D01*
Y294370D01*
X105051D01*
Y293990D01*
X105240D01*
Y293801D01*
X105430D01*
Y293421D01*
X105620D01*
Y293232D01*
X105809D01*
Y292852D01*
X105999D01*
Y292663D01*
X106189D01*
Y292473D01*
X106379D01*
Y292283D01*
X106568D01*
Y292093D01*
X106758D01*
Y291904D01*
X106948D01*
Y291714D01*
X107138D01*
Y291524D01*
X107517D01*
Y291334D01*
X107896D01*
Y291145D01*
X108276D01*
Y290955D01*
X108845D01*
Y290765D01*
X111122D01*
Y290955D01*
X111501D01*
Y291145D01*
X111881D01*
Y291334D01*
X112260D01*
Y291145D01*
X112070D01*
Y290955D01*
X111691D01*
Y290765D01*
X111311D01*
Y290576D01*
X110553D01*
Y290386D01*
X110363D01*
Y290576D01*
X108845D01*
Y290765D01*
X108086D01*
Y290955D01*
X107707D01*
Y291145D01*
X107517D01*
Y291334D01*
X107138D01*
Y291524D01*
X106948D01*
Y291714D01*
X106758D01*
Y291904D01*
X106568D01*
Y292093D01*
X106379D01*
Y292283D01*
X105999D01*
Y292663D01*
X105809D01*
Y292852D01*
X105620D01*
Y293042D01*
X105430D01*
Y293232D01*
X105240D01*
Y293611D01*
X105051D01*
Y293990D01*
X104861D01*
Y294370D01*
X104671D01*
Y294749D01*
X104481D01*
Y294939D01*
Y295129D01*
X104292D01*
Y295508D01*
X104102D01*
Y295698D01*
X103912D01*
Y296077D01*
X103723D01*
Y296267D01*
X103533D01*
Y296457D01*
X103343D01*
Y296646D01*
X103153D01*
Y296836D01*
X102964D01*
Y297026D01*
X102395D01*
Y297216D01*
X101636D01*
Y297405D01*
X100877D01*
Y297595D01*
X101636D01*
Y297405D01*
X102395D01*
Y297216D01*
X102584D01*
Y297405D01*
X102964D01*
Y297595D01*
X102774D01*
Y297975D01*
X102964D01*
Y297595D01*
D02*
G37*
G36*
X42443Y297405D02*
X42254D01*
Y297216D01*
X41874D01*
Y297405D01*
X42064D01*
Y297595D01*
X42443D01*
Y297405D01*
D02*
G37*
G36*
X106568Y297026D02*
X106379D01*
Y297216D01*
Y297405D01*
X106568D01*
Y297026D01*
D02*
G37*
G36*
X118141Y297216D02*
X117382D01*
Y297026D01*
X116623D01*
Y296836D01*
X115675D01*
Y296646D01*
X114916D01*
Y296836D01*
X115485D01*
Y297026D01*
X116244D01*
Y297216D01*
X117003D01*
Y297405D01*
X117951D01*
Y297595D01*
X118141D01*
Y297216D01*
D02*
G37*
G36*
X41874Y297026D02*
X41685D01*
Y296836D01*
X41495D01*
Y296646D01*
X41115D01*
Y296836D01*
X41305D01*
Y297026D01*
X41495D01*
Y297216D01*
X41874D01*
Y297026D01*
D02*
G37*
G36*
X41115Y296457D02*
X40926D01*
Y296267D01*
X40736D01*
Y296077D01*
X40356D01*
Y295888D01*
X39977D01*
Y296077D01*
X40167D01*
Y296267D01*
X40546D01*
Y296457D01*
X40736D01*
Y296646D01*
X41115D01*
Y296457D01*
D02*
G37*
G36*
X106379Y296267D02*
X106189D01*
Y295698D01*
X105999D01*
Y295888D01*
Y296077D01*
Y296457D01*
X106189D01*
Y297026D01*
X106379D01*
Y296267D01*
D02*
G37*
G36*
X45669Y301200D02*
X46238D01*
Y301010D01*
X46427D01*
Y300820D01*
X46617D01*
Y300631D01*
X46807D01*
Y300441D01*
X46997D01*
Y300251D01*
X47186D01*
Y300061D01*
X47376D01*
Y299682D01*
X47566D01*
Y299303D01*
X47756D01*
Y298734D01*
X47945D01*
Y296646D01*
X47756D01*
Y295888D01*
X47566D01*
Y295508D01*
X47376D01*
Y296077D01*
X47566D01*
Y296836D01*
X47756D01*
Y298544D01*
X47566D01*
Y299113D01*
X47376D01*
Y299492D01*
X47186D01*
Y299872D01*
X46997D01*
Y300251D01*
X46807D01*
Y300441D01*
X46617D01*
Y300631D01*
X46238D01*
Y300820D01*
X46048D01*
Y301010D01*
X45669D01*
Y301200D01*
X45100D01*
Y301390D01*
X45669D01*
Y301200D01*
D02*
G37*
G36*
X39977Y295698D02*
X39787D01*
Y295508D01*
X39408D01*
Y295319D01*
X38270D01*
Y295508D01*
X39218D01*
Y295698D01*
X39598D01*
Y295888D01*
X39977D01*
Y295698D01*
D02*
G37*
G36*
X106379Y294939D02*
X106189D01*
Y295319D01*
X106379D01*
Y294939D01*
D02*
G37*
G36*
X47376Y295129D02*
X47186D01*
Y294749D01*
X46997D01*
Y294560D01*
X46807D01*
Y294939D01*
X46997D01*
Y295319D01*
X47186D01*
Y295508D01*
X47376D01*
Y295129D01*
D02*
G37*
G36*
X108466Y299492D02*
X108655D01*
Y298923D01*
X108845D01*
Y298544D01*
X109035D01*
Y298164D01*
X109225D01*
Y297785D01*
X109414D01*
Y297405D01*
X109604D01*
Y297026D01*
X109794D01*
Y296646D01*
X109983D01*
Y296267D01*
X110173D01*
Y295888D01*
X110363D01*
Y295508D01*
X110553D01*
Y294939D01*
X110742D01*
Y293611D01*
X110553D01*
Y294180D01*
Y294370D01*
Y294939D01*
X110363D01*
Y295319D01*
X110173D01*
Y295698D01*
X109983D01*
Y296077D01*
X109794D01*
Y296457D01*
X109604D01*
Y296836D01*
X109414D01*
Y297026D01*
Y297216D01*
X109225D01*
Y297595D01*
X109035D01*
Y297975D01*
X108845D01*
Y298354D01*
X108655D01*
Y298734D01*
X108466D01*
Y299303D01*
X108276D01*
Y300441D01*
X108466D01*
Y299492D01*
D02*
G37*
G36*
X41495Y293990D02*
X42064D01*
Y293801D01*
X43202D01*
Y293611D01*
X41874D01*
Y293801D01*
X41495D01*
Y293990D01*
X41115D01*
Y294180D01*
X41495D01*
Y293990D01*
D02*
G37*
G36*
X113588Y293042D02*
X113398D01*
Y293421D01*
X113588D01*
Y293042D01*
D02*
G37*
G36*
X46807Y294180D02*
X46617D01*
Y293990D01*
X46427D01*
Y293801D01*
X46238D01*
Y293611D01*
X46048D01*
Y293421D01*
X45858D01*
Y293232D01*
X45669D01*
Y293042D01*
X45289D01*
Y293232D01*
X45479D01*
Y293421D01*
X45669D01*
Y293611D01*
X45858D01*
Y293801D01*
X46048D01*
Y293990D01*
X46238D01*
Y294180D01*
X46427D01*
Y294370D01*
X46617D01*
Y294560D01*
X46807D01*
Y294180D01*
D02*
G37*
G36*
X45289Y292852D02*
X45100D01*
Y293042D01*
X45289D01*
Y292852D01*
D02*
G37*
G36*
X113398Y292663D02*
Y292473D01*
X113209D01*
Y292852D01*
X113398D01*
Y292663D01*
D02*
G37*
G36*
X45100D02*
X44910D01*
Y292473D01*
X44530D01*
Y292663D01*
X44720D01*
Y292852D01*
X45100D01*
Y292663D01*
D02*
G37*
G36*
X44530Y292283D02*
X44341D01*
Y292473D01*
X44530D01*
Y292283D01*
D02*
G37*
G36*
X113209Y292093D02*
X113019D01*
Y292283D01*
Y292473D01*
X113209D01*
Y292093D01*
D02*
G37*
G36*
X113019Y291904D02*
X112829D01*
Y292093D01*
X113019D01*
Y291904D01*
D02*
G37*
G36*
X44341Y292093D02*
X44151D01*
Y291904D01*
X43772D01*
Y292093D01*
X43961D01*
Y292283D01*
X44341D01*
Y292093D01*
D02*
G37*
G36*
X43772Y291714D02*
X43582D01*
Y291904D01*
X43772D01*
Y291714D01*
D02*
G37*
G36*
X43582Y291524D02*
X43392D01*
Y291714D01*
X43582D01*
Y291524D01*
D02*
G37*
G36*
X112829D02*
X112639D01*
Y291334D01*
X112260D01*
Y291524D01*
X112450D01*
Y291714D01*
X112639D01*
Y291904D01*
X112829D01*
Y291524D01*
D02*
G37*
G36*
X43392Y291334D02*
X43202D01*
Y291145D01*
X43013D01*
Y290955D01*
X42823D01*
Y290765D01*
X42633D01*
Y291145D01*
X42823D01*
Y291334D01*
X43013D01*
Y291524D01*
X43392D01*
Y291334D01*
D02*
G37*
G36*
X42633Y290386D02*
X42443D01*
Y290006D01*
X42254D01*
Y290576D01*
X42443D01*
Y290765D01*
X42633D01*
Y290386D01*
D02*
G37*
G36*
X93478Y299492D02*
X94047D01*
Y299303D01*
X94616D01*
Y299113D01*
X94995D01*
Y298923D01*
X95185D01*
Y298734D01*
X95565D01*
Y298544D01*
X95754D01*
Y298354D01*
X95944D01*
Y297975D01*
X96134D01*
Y297785D01*
X96324D01*
Y297595D01*
X96513D01*
Y297216D01*
X96703D01*
Y296646D01*
X96893D01*
Y295888D01*
X97083D01*
Y295319D01*
X97272D01*
Y293232D01*
X97083D01*
Y292473D01*
X96893D01*
Y291714D01*
X96703D01*
Y291145D01*
X96513D01*
Y290576D01*
X96324D01*
Y290196D01*
X96134D01*
Y289817D01*
X95944D01*
Y289627D01*
X95754D01*
Y289247D01*
X95565D01*
Y289058D01*
X95375D01*
Y288868D01*
X95185D01*
Y288489D01*
X94995D01*
Y288299D01*
X94806D01*
Y288109D01*
X94616D01*
Y287920D01*
X94426D01*
Y287540D01*
X94237D01*
Y287350D01*
X94047D01*
Y287161D01*
X93857D01*
Y286971D01*
X93667D01*
Y286591D01*
X93478D01*
Y286402D01*
X93288D01*
Y286212D01*
X93098D01*
Y286022D01*
X92909D01*
Y285833D01*
X92719D01*
Y285453D01*
X92529D01*
Y285263D01*
X92339D01*
Y285074D01*
X92150D01*
Y284884D01*
X91960D01*
Y284694D01*
X91770D01*
Y284315D01*
X91581D01*
Y284125D01*
X91391D01*
Y283935D01*
X91201D01*
Y283556D01*
X91011D01*
Y283366D01*
X90822D01*
Y283176D01*
X90632D01*
Y282987D01*
X90442D01*
Y282797D01*
X90253D01*
Y282418D01*
X90063D01*
Y282228D01*
X89873D01*
Y282038D01*
X89683D01*
Y281849D01*
X89494D01*
Y281659D01*
X89304D01*
Y281469D01*
X89114D01*
Y281090D01*
X88925D01*
Y280900D01*
X88735D01*
Y280710D01*
X88545D01*
Y280331D01*
X88355D01*
Y280141D01*
X88166D01*
Y279951D01*
X87976D01*
Y279762D01*
X87786D01*
Y279572D01*
X87597D01*
Y279192D01*
X87407D01*
Y279003D01*
X87217D01*
Y278813D01*
X87027D01*
Y278623D01*
X86838D01*
Y278244D01*
X86648D01*
Y277864D01*
X86458D01*
Y277675D01*
X86269D01*
Y277295D01*
X86079D01*
Y276726D01*
X85889D01*
Y276157D01*
X85699D01*
Y273880D01*
X85889D01*
Y273501D01*
X86079D01*
Y273311D01*
X86269D01*
Y272932D01*
X86458D01*
Y272742D01*
X86648D01*
Y272362D01*
X86838D01*
Y272173D01*
X87027D01*
Y271793D01*
X87217D01*
Y271604D01*
X87407D01*
Y271414D01*
X87597D01*
Y271224D01*
X87786D01*
Y271035D01*
X87976D01*
Y270845D01*
X88166D01*
Y270655D01*
X88355D01*
Y270465D01*
X88545D01*
Y269896D01*
X88735D01*
Y269517D01*
X88545D01*
Y269137D01*
X88355D01*
Y268948D01*
X88166D01*
Y268758D01*
X87976D01*
Y268568D01*
X87786D01*
Y268379D01*
X87027D01*
Y268568D01*
X86838D01*
Y268758D01*
X86648D01*
Y268948D01*
X86458D01*
Y269327D01*
X86269D01*
Y269517D01*
X86079D01*
Y269706D01*
X85889D01*
Y269896D01*
X85699D01*
Y270086D01*
X85510D01*
Y270465D01*
X85320D01*
Y270655D01*
X85130D01*
Y270845D01*
X84940D01*
Y271035D01*
X84751D01*
Y271224D01*
X84561D01*
Y271793D01*
X84371D01*
Y271983D01*
X84182D01*
Y272362D01*
X83992D01*
Y272742D01*
X83802D01*
Y273501D01*
X83612D01*
Y276536D01*
X83802D01*
Y277485D01*
X83992D01*
Y277864D01*
X84182D01*
Y278434D01*
X84371D01*
Y278813D01*
X84561D01*
Y279192D01*
X84751D01*
Y279572D01*
X84940D01*
Y279762D01*
X85130D01*
Y280141D01*
X85320D01*
Y280331D01*
X85510D01*
Y280710D01*
X85699D01*
Y280900D01*
X85889D01*
Y281090D01*
X86079D01*
Y281279D01*
X86269D01*
Y281469D01*
X86458D01*
Y281659D01*
X86648D01*
Y282038D01*
X86838D01*
Y282228D01*
X87027D01*
Y282418D01*
X87217D01*
Y282797D01*
X87407D01*
Y282987D01*
X87597D01*
Y283176D01*
X87786D01*
Y283366D01*
X87976D01*
Y283556D01*
X88166D01*
Y283935D01*
X88355D01*
Y284125D01*
X88545D01*
Y284315D01*
X88735D01*
Y284505D01*
X88925D01*
Y284884D01*
X89114D01*
Y285074D01*
X89304D01*
Y285263D01*
X89494D01*
Y285453D01*
X89683D01*
Y285643D01*
X89873D01*
Y286022D01*
X90063D01*
Y286212D01*
X90253D01*
Y286402D01*
X90442D01*
Y286591D01*
X90632D01*
Y286781D01*
X90822D01*
Y287161D01*
X91011D01*
Y287350D01*
X91201D01*
Y287540D01*
X91391D01*
Y287920D01*
X91581D01*
Y288109D01*
X91770D01*
Y288299D01*
X91960D01*
Y288489D01*
X92150D01*
Y288678D01*
X92339D01*
Y289058D01*
X92529D01*
Y289247D01*
X92719D01*
Y289437D01*
X92909D01*
Y289627D01*
X93098D01*
Y289817D01*
X93288D01*
Y290196D01*
X93478D01*
Y290386D01*
X93667D01*
Y290576D01*
X93857D01*
Y290955D01*
X94047D01*
Y291145D01*
X94237D01*
Y291524D01*
X94426D01*
Y291714D01*
X94616D01*
Y292283D01*
X94806D01*
Y292852D01*
X94995D01*
Y295508D01*
X94806D01*
Y295698D01*
X94616D01*
Y296077D01*
X94426D01*
Y296267D01*
X94237D01*
Y296457D01*
X94047D01*
Y296646D01*
X93857D01*
Y296836D01*
X93288D01*
Y297026D01*
X92150D01*
Y296836D01*
X91391D01*
Y296646D01*
X91201D01*
Y296457D01*
X91011D01*
Y296267D01*
X90632D01*
Y296077D01*
X90442D01*
Y295888D01*
X90253D01*
Y295698D01*
X90063D01*
Y295508D01*
X89873D01*
Y295319D01*
X89683D01*
Y295129D01*
X89494D01*
Y294749D01*
X89304D01*
Y294560D01*
X89114D01*
Y294370D01*
X88925D01*
Y293990D01*
X88735D01*
Y293421D01*
X88545D01*
Y293232D01*
X88735D01*
Y292093D01*
X88545D01*
Y291714D01*
X88355D01*
Y291334D01*
X88166D01*
Y290955D01*
X87976D01*
Y290576D01*
X87786D01*
Y290386D01*
X87597D01*
Y290006D01*
X87407D01*
Y289627D01*
X87217D01*
Y289247D01*
X87027D01*
Y288678D01*
X86838D01*
Y287540D01*
X86648D01*
Y287161D01*
X86458D01*
Y286781D01*
X86269D01*
Y286591D01*
X86079D01*
Y286402D01*
X85889D01*
Y286022D01*
X85699D01*
Y285833D01*
X85510D01*
Y285643D01*
X85320D01*
Y285453D01*
X85130D01*
Y285263D01*
X84940D01*
Y284884D01*
X84751D01*
Y284694D01*
X84561D01*
Y284315D01*
X84371D01*
Y284125D01*
X84182D01*
Y283935D01*
X83992D01*
Y283556D01*
X83802D01*
Y283366D01*
X83612D01*
Y283176D01*
X83423D01*
Y282987D01*
X83233D01*
Y282607D01*
X83043D01*
Y282418D01*
X82854D01*
Y282228D01*
X82664D01*
Y282038D01*
X82474D01*
Y281659D01*
X82284D01*
Y281279D01*
X82095D01*
Y281090D01*
X81905D01*
Y280900D01*
X81715D01*
Y280710D01*
X81525D01*
Y280520D01*
X81336D01*
Y280141D01*
X81146D01*
Y279951D01*
X80956D01*
Y279762D01*
X80767D01*
Y279382D01*
X80577D01*
Y279192D01*
X80387D01*
Y279003D01*
X80197D01*
Y278623D01*
X80008D01*
Y278434D01*
X79818D01*
Y278054D01*
X79628D01*
Y277864D01*
X79439D01*
Y277675D01*
X79249D01*
Y277485D01*
X79059D01*
Y277106D01*
X78870D01*
Y276916D01*
X78680D01*
Y276726D01*
X78490D01*
Y276536D01*
X78300D01*
Y276347D01*
X78111D01*
Y275967D01*
X77921D01*
Y275777D01*
X77731D01*
Y275398D01*
X77541D01*
Y275208D01*
X77352D01*
Y275019D01*
X77162D01*
Y274829D01*
X76972D01*
Y274450D01*
X76782D01*
Y274260D01*
X76593D01*
Y274070D01*
X76403D01*
Y273691D01*
X76213D01*
Y273501D01*
X76024D01*
Y273311D01*
X75834D01*
Y272932D01*
X75644D01*
Y272742D01*
X75455D01*
Y272552D01*
X75265D01*
Y272173D01*
X75075D01*
Y271983D01*
X74885D01*
Y271793D01*
X74696D01*
Y271604D01*
X74506D01*
Y271224D01*
X74316D01*
Y271035D01*
X74127D01*
Y270655D01*
X73937D01*
Y270465D01*
X73747D01*
Y270276D01*
X73557D01*
Y270086D01*
X73368D01*
Y269706D01*
X73178D01*
Y269517D01*
X72988D01*
Y269327D01*
X72799D01*
Y268948D01*
X72609D01*
Y268758D01*
X72419D01*
Y268568D01*
X72229D01*
Y268379D01*
X72040D01*
Y267999D01*
X71850D01*
Y267809D01*
X71660D01*
Y267620D01*
X71470D01*
Y267430D01*
X71281D01*
Y267050D01*
X71091D01*
Y266481D01*
X70901D01*
Y265722D01*
X70711D01*
Y265343D01*
X70522D01*
Y264963D01*
X70332D01*
Y264774D01*
X70142D01*
Y264584D01*
X69953D01*
Y264205D01*
X69763D01*
Y264015D01*
X69573D01*
Y263636D01*
X69384D01*
Y262497D01*
X69573D01*
Y261928D01*
X69384D01*
Y261359D01*
X69194D01*
Y260979D01*
X69004D01*
Y260600D01*
X68814D01*
Y260221D01*
X68625D01*
Y260031D01*
X68435D01*
Y259841D01*
X68245D01*
Y259651D01*
X68056D01*
Y259272D01*
X67676D01*
Y259082D01*
X67486D01*
Y258892D01*
X67297D01*
Y258703D01*
X66917D01*
Y258513D01*
X66158D01*
Y258703D01*
X65210D01*
Y258892D01*
X64640D01*
Y259082D01*
X64071D01*
Y259272D01*
X62933D01*
Y259082D01*
X62554D01*
Y258703D01*
X62364D01*
Y258513D01*
X62174D01*
Y258323D01*
X61985D01*
Y257944D01*
X61795D01*
Y257754D01*
X61605D01*
Y257565D01*
X61415D01*
Y257375D01*
X61226D01*
Y257185D01*
X61036D01*
Y256995D01*
X60846D01*
Y256616D01*
X60656D01*
Y256426D01*
X60467D01*
Y256236D01*
X60277D01*
Y256047D01*
X60087D01*
Y255667D01*
X59898D01*
Y255478D01*
X59708D01*
Y255288D01*
X59518D01*
Y255098D01*
X59328D01*
Y254908D01*
X59139D01*
Y254529D01*
X58949D01*
Y254339D01*
X58759D01*
Y254150D01*
X58570D01*
Y253960D01*
X58380D01*
Y253770D01*
X58190D01*
Y253391D01*
X58000D01*
Y253201D01*
X57811D01*
Y252822D01*
X57621D01*
Y252632D01*
X57431D01*
Y252442D01*
X57242D01*
Y252252D01*
X57052D01*
Y252063D01*
X56862D01*
Y251873D01*
X56672D01*
Y251493D01*
X56483D01*
Y251304D01*
X56293D01*
Y251114D01*
X56103D01*
Y250924D01*
X55914D01*
Y250545D01*
X55724D01*
Y250355D01*
X55534D01*
Y250165D01*
X55344D01*
Y249976D01*
X55155D01*
Y249596D01*
X54775D01*
Y249217D01*
X54585D01*
Y249027D01*
X54396D01*
Y248837D01*
X54206D01*
Y248648D01*
X54016D01*
Y248268D01*
X53827D01*
Y248078D01*
X53637D01*
Y247889D01*
X53447D01*
Y247509D01*
X53257D01*
Y247320D01*
X53068D01*
Y247130D01*
X52878D01*
Y246940D01*
X52688D01*
Y246751D01*
X52498D01*
Y246371D01*
X52309D01*
Y246181D01*
X52119D01*
Y245992D01*
X51929D01*
Y245802D01*
X51740D01*
Y245612D01*
X51550D01*
Y245233D01*
X51360D01*
Y245043D01*
X51171D01*
Y244853D01*
X50981D01*
Y244474D01*
X50791D01*
Y244284D01*
X50601D01*
Y244095D01*
X50412D01*
Y243905D01*
X50222D01*
Y243715D01*
X50032D01*
Y243525D01*
X49843D01*
Y243146D01*
X49653D01*
Y242956D01*
X49463D01*
Y242766D01*
X49273D01*
Y242577D01*
X49084D01*
Y242197D01*
X48894D01*
Y242008D01*
X48704D01*
Y241818D01*
X48514D01*
Y241628D01*
X48325D01*
Y241249D01*
X48135D01*
Y241059D01*
X47945D01*
Y240869D01*
X47756D01*
Y240679D01*
X47566D01*
Y240490D01*
X47376D01*
Y240300D01*
X47186D01*
Y239921D01*
X46997D01*
Y239731D01*
X46807D01*
Y239352D01*
X46427D01*
Y239162D01*
X46238D01*
Y238972D01*
X45858D01*
Y238782D01*
X45100D01*
Y238593D01*
X44720D01*
Y238403D01*
X44530D01*
Y238213D01*
X44341D01*
Y238023D01*
X44151D01*
Y237834D01*
X43961D01*
Y237644D01*
X43772D01*
Y237454D01*
X43392D01*
Y237265D01*
X43202D01*
Y237075D01*
X43013D01*
Y236885D01*
X42823D01*
Y236695D01*
X42633D01*
Y236506D01*
X42443D01*
Y236316D01*
X42254D01*
Y236126D01*
X42064D01*
Y235937D01*
X41685D01*
Y235747D01*
X41495D01*
Y235557D01*
X41305D01*
Y235367D01*
X41115D01*
Y235178D01*
X40926D01*
Y234988D01*
X40736D01*
Y234798D01*
X40546D01*
Y234608D01*
X40356D01*
Y234419D01*
X40167D01*
Y234229D01*
X39977D01*
Y234039D01*
X39787D01*
Y233850D01*
X39408D01*
Y233660D01*
X39218D01*
Y233470D01*
X39028D01*
Y233281D01*
X38839D01*
Y233091D01*
X38649D01*
Y232901D01*
X38459D01*
Y232711D01*
X38270D01*
Y232522D01*
X38080D01*
Y232332D01*
X37890D01*
Y232142D01*
X37701D01*
Y231952D01*
X37511D01*
Y231763D01*
X36562D01*
Y231952D01*
X36372D01*
Y232522D01*
X36562D01*
Y232901D01*
X36752D01*
Y233281D01*
X36942D01*
Y233660D01*
X37131D01*
Y233850D01*
X37321D01*
Y234229D01*
X37511D01*
Y234608D01*
X37701D01*
Y234988D01*
X37890D01*
Y235367D01*
X38080D01*
Y235557D01*
X38270D01*
Y235937D01*
X38459D01*
Y236126D01*
X38649D01*
Y236506D01*
X38839D01*
Y236695D01*
X39028D01*
Y237075D01*
X39218D01*
Y237454D01*
X39408D01*
Y237644D01*
X39598D01*
Y238023D01*
X39787D01*
Y238213D01*
X39977D01*
Y238593D01*
X40167D01*
Y238972D01*
X40356D01*
Y239352D01*
X40546D01*
Y239541D01*
X40736D01*
Y239921D01*
X40926D01*
Y240300D01*
X41115D01*
Y240490D01*
X41305D01*
Y240869D01*
X41495D01*
Y241249D01*
X41685D01*
Y241438D01*
X41874D01*
Y241818D01*
X42064D01*
Y242387D01*
X42254D01*
Y243525D01*
X42443D01*
Y243905D01*
X42633D01*
Y244095D01*
X42823D01*
Y244474D01*
X43013D01*
Y244664D01*
X43202D01*
Y244853D01*
X43392D01*
Y245043D01*
X43582D01*
Y245233D01*
X43772D01*
Y245612D01*
X43961D01*
Y245802D01*
X44151D01*
Y245992D01*
X44341D01*
Y246181D01*
X44530D01*
Y246561D01*
X44720D01*
Y246751D01*
X44910D01*
Y246940D01*
X45100D01*
Y247130D01*
X45289D01*
Y247509D01*
X45479D01*
Y247699D01*
X45669D01*
Y247889D01*
X45858D01*
Y248078D01*
X46048D01*
Y248268D01*
X46238D01*
Y248648D01*
X46427D01*
Y248837D01*
X46617D01*
Y249027D01*
X46807D01*
Y249217D01*
X46997D01*
Y249596D01*
X47186D01*
Y249786D01*
X47376D01*
Y249976D01*
X47566D01*
Y250165D01*
X47756D01*
Y250355D01*
X47945D01*
Y250735D01*
X48135D01*
Y250924D01*
X48325D01*
Y251114D01*
X48514D01*
Y251304D01*
X48704D01*
Y251493D01*
X48894D01*
Y251873D01*
X49084D01*
Y252063D01*
X49273D01*
Y252442D01*
X49463D01*
Y252632D01*
X49653D01*
Y252822D01*
X49843D01*
Y253011D01*
X50032D01*
Y253201D01*
X50222D01*
Y253580D01*
X50412D01*
Y253770D01*
X50601D01*
Y253960D01*
X50791D01*
Y254150D01*
X50981D01*
Y254339D01*
X51171D01*
Y254719D01*
X51360D01*
Y254908D01*
X51550D01*
Y255098D01*
X51740D01*
Y255288D01*
X51929D01*
Y255478D01*
X52119D01*
Y255857D01*
X52309D01*
Y256047D01*
X52498D01*
Y256236D01*
X52688D01*
Y256616D01*
X52878D01*
Y256806D01*
X53068D01*
Y256995D01*
X53257D01*
Y257185D01*
X53447D01*
Y257375D01*
X53637D01*
Y257754D01*
X53827D01*
Y257944D01*
X54016D01*
Y258134D01*
X54206D01*
Y258323D01*
X54396D01*
Y258513D01*
X54585D01*
Y258892D01*
X54775D01*
Y259082D01*
X54965D01*
Y259272D01*
X55155D01*
Y259462D01*
X55344D01*
Y259841D01*
X55724D01*
Y260221D01*
X55914D01*
Y260410D01*
X56103D01*
Y260790D01*
X56293D01*
Y260979D01*
X56483D01*
Y261169D01*
X56672D01*
Y261359D01*
X56862D01*
Y261738D01*
X57052D01*
Y261928D01*
X57242D01*
Y262118D01*
X57431D01*
Y262307D01*
X57621D01*
Y262497D01*
X57811D01*
Y262877D01*
X58000D01*
Y263066D01*
X58190D01*
Y263256D01*
X58380D01*
Y263446D01*
X58570D01*
Y263825D01*
X58759D01*
Y264015D01*
X58949D01*
Y265533D01*
X58759D01*
Y266481D01*
X58570D01*
Y267430D01*
X58380D01*
Y269327D01*
X58570D01*
Y269896D01*
X58759D01*
Y270086D01*
X58949D01*
Y270465D01*
X59139D01*
Y270655D01*
X59328D01*
Y270845D01*
X59518D01*
Y271035D01*
X59708D01*
Y271224D01*
X59898D01*
Y271414D01*
X60087D01*
Y271793D01*
X60277D01*
Y271983D01*
X60846D01*
Y272173D01*
X62554D01*
Y272362D01*
X62743D01*
Y272552D01*
X62933D01*
Y272742D01*
X63123D01*
Y272932D01*
X63313D01*
Y273121D01*
X63502D01*
Y273311D01*
X63692D01*
Y273501D01*
X63882D01*
Y273691D01*
X64261D01*
Y273880D01*
X64830D01*
Y274070D01*
X65210D01*
Y274260D01*
X65399D01*
Y274450D01*
X65779D01*
Y274829D01*
X65969D01*
Y275019D01*
X66158D01*
Y275208D01*
X66348D01*
Y275398D01*
X66538D01*
Y275588D01*
X66727D01*
Y276157D01*
X66917D01*
Y276347D01*
X67107D01*
Y276536D01*
X67297D01*
Y276726D01*
X67486D01*
Y276916D01*
X67676D01*
Y277106D01*
X67866D01*
Y277485D01*
X68056D01*
Y277675D01*
X68245D01*
Y277864D01*
X68435D01*
Y278054D01*
X68625D01*
Y278244D01*
X68814D01*
Y278623D01*
X69004D01*
Y278813D01*
X69194D01*
Y279003D01*
X69384D01*
Y279192D01*
X69573D01*
Y279382D01*
X69763D01*
Y279572D01*
X69953D01*
Y279762D01*
X70142D01*
Y280141D01*
X70332D01*
Y280331D01*
X70522D01*
Y280520D01*
X70711D01*
Y280710D01*
X70901D01*
Y280900D01*
X71091D01*
Y281090D01*
X71281D01*
Y281469D01*
X71470D01*
Y281659D01*
X71660D01*
Y281849D01*
X71850D01*
Y282038D01*
X72040D01*
Y282228D01*
X72229D01*
Y282418D01*
X72419D01*
Y282607D01*
X72609D01*
Y282797D01*
X72799D01*
Y282987D01*
X72988D01*
Y283366D01*
X73178D01*
Y283556D01*
X73368D01*
Y283746D01*
X73557D01*
Y284125D01*
X73747D01*
Y284315D01*
X73937D01*
Y284505D01*
X74127D01*
Y284694D01*
X74316D01*
Y284884D01*
X74506D01*
Y285074D01*
X74696D01*
Y285263D01*
X74885D01*
Y285453D01*
X75075D01*
Y285643D01*
X75265D01*
Y285833D01*
X75455D01*
Y286022D01*
X75644D01*
Y286402D01*
X75834D01*
Y286591D01*
X76024D01*
Y286781D01*
X76213D01*
Y287161D01*
X76403D01*
Y287350D01*
X76782D01*
Y287730D01*
X76972D01*
Y287920D01*
X77162D01*
Y288109D01*
X77352D01*
Y288299D01*
X77541D01*
Y288489D01*
X77731D01*
Y288868D01*
X77921D01*
Y289058D01*
X78111D01*
Y289247D01*
X78300D01*
Y289437D01*
X78490D01*
Y289627D01*
X78680D01*
Y289817D01*
X78870D01*
Y290006D01*
X79059D01*
Y290386D01*
X79249D01*
Y290576D01*
X79439D01*
Y290765D01*
X79628D01*
Y290955D01*
X79818D01*
Y291145D01*
X80008D01*
Y291334D01*
X80197D01*
Y291714D01*
X80387D01*
Y291904D01*
X80577D01*
Y292093D01*
X80767D01*
Y292283D01*
X80956D01*
Y292473D01*
X81146D01*
Y292663D01*
X81336D01*
Y292852D01*
X81525D01*
Y293042D01*
X81715D01*
Y293232D01*
X82095D01*
Y293421D01*
X82474D01*
Y293611D01*
X83043D01*
Y293801D01*
X83423D01*
Y293990D01*
X83612D01*
Y294180D01*
X83802D01*
Y294370D01*
X84182D01*
Y294560D01*
X84371D01*
Y294749D01*
X84561D01*
Y294939D01*
X84751D01*
Y295129D01*
X84940D01*
Y295319D01*
X85130D01*
Y295508D01*
X85510D01*
Y295698D01*
X87217D01*
Y295888D01*
X87407D01*
Y296267D01*
X87597D01*
Y296457D01*
X87786D01*
Y296646D01*
X87976D01*
Y296836D01*
X88166D01*
Y297026D01*
X88355D01*
Y297216D01*
X88545D01*
Y297405D01*
X88735D01*
Y297595D01*
X88925D01*
Y297975D01*
X89114D01*
Y298164D01*
X89304D01*
Y298354D01*
X89494D01*
Y298544D01*
X89873D01*
Y298734D01*
X90253D01*
Y298923D01*
X90632D01*
Y299113D01*
X91011D01*
Y299303D01*
X91391D01*
Y299492D01*
X92339D01*
Y299682D01*
X93478D01*
Y299492D01*
D02*
G37*
G36*
X105620Y230245D02*
X105809D01*
Y229676D01*
X105620D01*
Y229865D01*
X105240D01*
Y229676D01*
X105051D01*
Y229865D01*
X104481D01*
Y229676D01*
X104292D01*
Y229486D01*
X104102D01*
Y229296D01*
X104292D01*
Y229107D01*
X104481D01*
Y228727D01*
X104671D01*
Y228538D01*
X104861D01*
Y228158D01*
X105051D01*
Y227968D01*
X105240D01*
Y227779D01*
X105430D01*
Y227399D01*
X105620D01*
Y227209D01*
X105809D01*
Y226830D01*
X105999D01*
Y226640D01*
X106189D01*
Y226451D01*
X106379D01*
Y226071D01*
X106568D01*
Y225881D01*
X106758D01*
Y225692D01*
X107327D01*
Y225502D01*
X107138D01*
Y225312D01*
X106948D01*
Y225123D01*
X106758D01*
Y224933D01*
X106379D01*
Y224743D01*
X106189D01*
Y224553D01*
X105999D01*
Y224933D01*
X106189D01*
Y225312D01*
X105999D01*
Y225502D01*
X105809D01*
Y225881D01*
X105620D01*
Y226071D01*
X105430D01*
Y226261D01*
X105240D01*
Y226640D01*
X105051D01*
Y226830D01*
X104861D01*
Y227209D01*
X104671D01*
Y227399D01*
X104481D01*
Y227589D01*
X104292D01*
Y227968D01*
X104102D01*
Y228158D01*
X103912D01*
Y228538D01*
X103723D01*
Y228727D01*
X103533D01*
Y228917D01*
X103153D01*
Y228727D01*
X102964D01*
Y228538D01*
X102774D01*
Y228348D01*
X102584D01*
Y227589D01*
X102774D01*
Y227399D01*
X102395D01*
Y227589D01*
X102205D01*
Y227779D01*
X101825D01*
Y227968D01*
X101636D01*
Y228158D01*
X101825D01*
Y228348D01*
X102205D01*
Y228538D01*
X102395D01*
Y228727D01*
X102774D01*
Y228917D01*
X102964D01*
Y229107D01*
X103343D01*
Y229296D01*
X103533D01*
Y229486D01*
X103723D01*
Y229676D01*
X104102D01*
Y229865D01*
X104292D01*
Y230055D01*
X104671D01*
Y230245D01*
X104861D01*
Y230435D01*
X105051D01*
Y230624D01*
X105430D01*
Y230814D01*
X105620D01*
Y230245D01*
D02*
G37*
G36*
X104861Y228917D02*
X104671D01*
Y229107D01*
X104861D01*
Y228917D01*
D02*
G37*
G36*
X105430Y228158D02*
X105240D01*
Y228348D01*
X105430D01*
Y228158D01*
D02*
G37*
G36*
X103153D02*
X102964D01*
Y228348D01*
X103153D01*
Y228158D01*
D02*
G37*
G36*
X101446Y227779D02*
X101256D01*
Y227968D01*
X101446D01*
Y227779D01*
D02*
G37*
G36*
X101825Y227589D02*
X101636D01*
Y227779D01*
X101825D01*
Y227589D01*
D02*
G37*
G36*
X103153Y227399D02*
X102964D01*
Y227589D01*
X103153D01*
Y227399D01*
D02*
G37*
G36*
X106189Y227020D02*
X106379D01*
Y226830D01*
X106189D01*
Y227020D01*
X105999D01*
Y227209D01*
X106189D01*
Y227020D01*
D02*
G37*
G36*
X106758Y226261D02*
X106948D01*
Y226071D01*
X106758D01*
Y226261D01*
X106568D01*
Y226451D01*
X106758D01*
Y226261D01*
D02*
G37*
G36*
X99549Y226071D02*
X99359D01*
Y226261D01*
X99549D01*
Y226071D01*
D02*
G37*
G36*
X49084D02*
X48894D01*
Y226261D01*
X49084D01*
Y226071D01*
D02*
G37*
G36*
X100118Y225692D02*
X99928D01*
Y225881D01*
X100118D01*
Y225692D01*
D02*
G37*
G36*
X44151D02*
X43961D01*
Y225881D01*
X44151D01*
Y225692D01*
D02*
G37*
G36*
X48704Y225502D02*
X48514D01*
Y225692D01*
X48704D01*
Y225502D01*
D02*
G37*
G36*
X102584Y225312D02*
X102395D01*
Y225502D01*
X102584D01*
Y225312D01*
D02*
G37*
G36*
X48514D02*
X48325D01*
Y225502D01*
X48514D01*
Y225312D01*
D02*
G37*
G36*
X107517Y225123D02*
X107327D01*
Y225312D01*
X107517D01*
Y225123D01*
D02*
G37*
G36*
X48325D02*
X48135D01*
Y225312D01*
X48325D01*
Y225123D01*
D02*
G37*
G36*
X44720Y225312D02*
X44910D01*
Y225123D01*
X44720D01*
Y225312D01*
X44530D01*
Y225502D01*
X44720D01*
Y225312D01*
D02*
G37*
G36*
X107327Y224933D02*
X107138D01*
Y225123D01*
X107327D01*
Y224933D01*
D02*
G37*
G36*
X46807Y230624D02*
X47186D01*
Y230435D01*
X47376D01*
Y230245D01*
X47756D01*
Y230055D01*
X47945D01*
Y229865D01*
X48325D01*
Y229676D01*
X48514D01*
Y229486D01*
X48704D01*
Y229296D01*
X48894D01*
Y228917D01*
X49084D01*
Y228538D01*
X49273D01*
Y228348D01*
Y227399D01*
X49084D01*
Y226830D01*
X48894D01*
Y226451D01*
X48704D01*
Y226261D01*
X48514D01*
Y225881D01*
X48325D01*
Y225692D01*
X48135D01*
Y225502D01*
X47945D01*
Y225312D01*
X47566D01*
Y225123D01*
X47186D01*
Y224933D01*
X45858D01*
Y225123D01*
X45289D01*
Y225312D01*
X45100D01*
Y225502D01*
X44910D01*
Y225692D01*
X44530D01*
Y225881D01*
X44341D01*
Y226071D01*
X43961D01*
Y226261D01*
X43772D01*
Y226451D01*
X43582D01*
Y226640D01*
X44151D01*
Y226830D01*
X44341D01*
Y227020D01*
X44530D01*
Y227399D01*
X44720D01*
Y227589D01*
X44910D01*
Y227779D01*
X45100D01*
Y228158D01*
X45289D01*
Y228348D01*
X45479D01*
Y228727D01*
X45669D01*
Y228917D01*
X45858D01*
Y229107D01*
X46048D01*
Y229486D01*
X46238D01*
Y229676D01*
X46427D01*
Y230055D01*
X46617D01*
Y230245D01*
X46807D01*
Y230624D01*
X46617D01*
Y230814D01*
X46807D01*
Y230624D01*
D02*
G37*
G36*
X47756Y224743D02*
X47566D01*
Y224933D01*
X47756D01*
Y224743D01*
D02*
G37*
G36*
X47376Y224553D02*
X46997D01*
Y224743D01*
X47376D01*
Y224553D01*
D02*
G37*
G36*
X103153Y224364D02*
X102964D01*
Y224553D01*
X103153D01*
Y224364D01*
D02*
G37*
G36*
X99739Y224174D02*
X99549D01*
Y224364D01*
X99739D01*
Y224174D01*
D02*
G37*
G36*
X96703D02*
X96324D01*
Y224364D01*
X96134D01*
Y224553D01*
X95375D01*
Y224364D01*
X94806D01*
Y224174D01*
X94616D01*
Y223984D01*
X94806D01*
Y223794D01*
X94616D01*
Y223984D01*
X94237D01*
Y223605D01*
X94426D01*
Y223225D01*
X94616D01*
Y222656D01*
X94806D01*
Y222277D01*
X95185D01*
Y222467D01*
X95375D01*
Y222277D01*
X95565D01*
Y222467D01*
X95944D01*
Y222656D01*
X96134D01*
Y223225D01*
X96324D01*
Y223036D01*
X96513D01*
Y222656D01*
X96703D01*
Y222277D01*
X96893D01*
Y221897D01*
X96703D01*
Y222087D01*
X96513D01*
Y222277D01*
X95944D01*
Y222087D01*
X95565D01*
Y221897D01*
X95185D01*
Y221328D01*
X95375D01*
Y220949D01*
X95565D01*
Y220569D01*
X95754D01*
Y220000D01*
X95944D01*
Y219621D01*
X96324D01*
Y219810D01*
X96893D01*
Y219621D01*
X96513D01*
Y219431D01*
X96134D01*
Y219241D01*
X95754D01*
Y219052D01*
X95185D01*
Y219810D01*
X94995D01*
Y220380D01*
X94806D01*
Y220759D01*
X94616D01*
Y221138D01*
X94426D01*
Y221518D01*
X94237D01*
Y221328D01*
X93857D01*
Y221708D01*
X94237D01*
Y222087D01*
X94047D01*
Y222467D01*
X93857D01*
Y222846D01*
X93667D01*
Y223415D01*
X93478D01*
Y223605D01*
X92909D01*
Y223794D01*
X93288D01*
Y223984D01*
X93667D01*
Y224174D01*
X94047D01*
Y224364D01*
X94426D01*
Y224553D01*
X94995D01*
Y224743D01*
X95375D01*
Y224933D01*
X95754D01*
Y225123D01*
X96324D01*
Y225312D01*
X96703D01*
Y224174D01*
D02*
G37*
G36*
X103343Y223984D02*
X103153D01*
Y224174D01*
X103343D01*
Y223984D01*
D02*
G37*
G36*
X101256Y226830D02*
X101446D01*
Y226451D01*
X101636D01*
Y226071D01*
X101825D01*
Y225692D01*
X102015D01*
Y225312D01*
X102205D01*
Y225123D01*
X102395D01*
Y224743D01*
X102584D01*
Y224364D01*
X102774D01*
Y223984D01*
X102964D01*
Y223605D01*
X103153D01*
Y223415D01*
X103343D01*
Y223036D01*
X103533D01*
Y222846D01*
X103343D01*
Y222656D01*
X102774D01*
Y222846D01*
X102395D01*
Y223036D01*
X102015D01*
Y223225D01*
X101825D01*
Y223415D01*
X101446D01*
Y223605D01*
X101256D01*
Y223794D01*
X100877D01*
Y223984D01*
X100687D01*
Y224174D01*
X100308D01*
Y224364D01*
X100118D01*
Y224553D01*
X99739D01*
Y224743D01*
X99549D01*
Y224933D01*
X99169D01*
Y225123D01*
X98980D01*
Y225312D01*
X98790D01*
Y224933D01*
X98980D01*
Y224553D01*
X99169D01*
Y224174D01*
X99359D01*
Y223794D01*
X99549D01*
Y223605D01*
X99739D01*
Y223225D01*
X99928D01*
Y222846D01*
X100118D01*
Y222656D01*
X100308D01*
Y222277D01*
X100497D01*
Y222087D01*
X100687D01*
Y221897D01*
X101446D01*
Y221708D01*
X101256D01*
Y221518D01*
X100877D01*
Y221328D01*
X100497D01*
Y221138D01*
X100308D01*
Y220949D01*
X100118D01*
Y221328D01*
X100308D01*
Y221708D01*
X100118D01*
Y222277D01*
X99928D01*
Y222656D01*
X99739D01*
Y223036D01*
X99549D01*
Y223225D01*
X99359D01*
Y223605D01*
X99169D01*
Y223984D01*
X98980D01*
Y224364D01*
X98790D01*
Y224553D01*
X98600D01*
Y224933D01*
X98411D01*
Y225312D01*
X98221D01*
Y225502D01*
X98031D01*
Y225692D01*
X97652D01*
Y225881D01*
X98031D01*
Y226071D01*
X98411D01*
Y226261D01*
X98600D01*
Y226451D01*
X98980D01*
Y226640D01*
X99169D01*
Y226261D01*
X98980D01*
Y226071D01*
X99169D01*
Y225881D01*
X99359D01*
Y225692D01*
X99739D01*
Y225502D01*
X99928D01*
Y225312D01*
X100308D01*
Y225123D01*
X100497D01*
Y224933D01*
X100877D01*
Y224743D01*
X101067D01*
Y224553D01*
X101446D01*
Y224364D01*
X101636D01*
Y224174D01*
X102015D01*
Y223984D01*
X102205D01*
Y223794D01*
X102584D01*
Y223984D01*
X102395D01*
Y224174D01*
X102205D01*
Y224743D01*
X102015D01*
Y225123D01*
X101825D01*
Y225312D01*
X101636D01*
Y225692D01*
X101446D01*
Y226071D01*
X101256D01*
Y226451D01*
X101067D01*
Y226640D01*
X100877D01*
Y226830D01*
X100687D01*
Y227020D01*
X100308D01*
Y227399D01*
X100687D01*
Y227589D01*
X100877D01*
Y227779D01*
X101256D01*
Y226830D01*
D02*
G37*
G36*
X99928Y223794D02*
X99739D01*
Y223984D01*
X99928D01*
Y223794D01*
D02*
G37*
G36*
X103723Y223415D02*
X103533D01*
Y223605D01*
X103723D01*
Y223415D01*
D02*
G37*
G36*
X53827D02*
X53637D01*
Y223605D01*
X53827D01*
Y223415D01*
D02*
G37*
G36*
X103912Y223036D02*
X103723D01*
Y223225D01*
X103912D01*
Y223036D01*
D02*
G37*
G36*
X100497Y222846D02*
X100308D01*
Y223036D01*
X100497D01*
Y222846D01*
D02*
G37*
G36*
X58190D02*
X58000D01*
Y223036D01*
X58190D01*
Y222846D01*
D02*
G37*
G36*
X103912Y222656D02*
X103723D01*
Y222846D01*
X103912D01*
Y222656D01*
D02*
G37*
G36*
X61985Y222087D02*
X61605D01*
Y222277D01*
X61985D01*
Y222087D01*
D02*
G37*
G36*
X62364Y221897D02*
X62174D01*
Y222087D01*
X62364D01*
Y221897D01*
D02*
G37*
G36*
X52498D02*
X52309D01*
Y222087D01*
X52498D01*
Y221897D01*
D02*
G37*
G36*
X51929Y227209D02*
X52498D01*
Y227020D01*
X52878D01*
Y226830D01*
X53068D01*
Y226640D01*
X53257D01*
Y226451D01*
X53447D01*
Y226071D01*
X53637D01*
Y225312D01*
Y225123D01*
Y224174D01*
X53447D01*
Y223794D01*
X53257D01*
Y223415D01*
X53068D01*
Y223036D01*
X52878D01*
Y222846D01*
X52688D01*
Y222656D01*
X52498D01*
Y222467D01*
X52309D01*
Y222277D01*
X52119D01*
Y222087D01*
X51550D01*
Y221897D01*
X50412D01*
Y222087D01*
X50032D01*
Y222277D01*
X49653D01*
Y222467D01*
X49463D01*
Y222656D01*
X49273D01*
Y222846D01*
X49084D01*
Y223225D01*
X48894D01*
Y225123D01*
X49084D01*
Y225502D01*
X49273D01*
Y225881D01*
X49463D01*
Y226261D01*
X49653D01*
Y226451D01*
X49843D01*
Y226640D01*
X50032D01*
Y226830D01*
X50412D01*
Y227020D01*
X50601D01*
Y227209D01*
X51360D01*
Y227399D01*
X51929D01*
Y227209D01*
D02*
G37*
G36*
X63692Y221708D02*
X63502D01*
Y221897D01*
X63692D01*
Y221708D01*
D02*
G37*
G36*
X63502Y221518D02*
X63313D01*
Y221708D01*
X63502D01*
Y221518D01*
D02*
G37*
G36*
X59139Y223605D02*
X59708D01*
Y223415D01*
X60467D01*
Y223225D01*
X61036D01*
Y223036D01*
X61605D01*
Y222846D01*
X62174D01*
Y222656D01*
X62743D01*
Y222467D01*
X63313D01*
Y222277D01*
X63502D01*
Y222087D01*
X63313D01*
Y221897D01*
X63123D01*
Y221708D01*
X62933D01*
Y221518D01*
X62743D01*
Y221897D01*
X62554D01*
Y222277D01*
X62174D01*
Y222467D01*
X61795D01*
Y222656D01*
X61605D01*
Y222467D01*
X61415D01*
Y222087D01*
X61226D01*
Y221518D01*
X61036D01*
Y220949D01*
X60846D01*
Y220190D01*
X61036D01*
Y220000D01*
X60846D01*
Y220190D01*
X60656D01*
Y219621D01*
X60846D01*
Y219431D01*
Y219241D01*
X60656D01*
Y219621D01*
X60467D01*
Y219052D01*
X60277D01*
Y218482D01*
X60087D01*
Y218103D01*
X60277D01*
Y218293D01*
X60467D01*
Y217913D01*
X60277D01*
Y217724D01*
X59898D01*
Y217913D01*
X59328D01*
Y218103D01*
X58759D01*
Y218293D01*
X59139D01*
Y218482D01*
X59328D01*
Y218672D01*
X59518D01*
Y219241D01*
X59708D01*
Y220000D01*
X59898D01*
Y220569D01*
X60087D01*
Y221138D01*
X60277D01*
Y221708D01*
X60467D01*
Y222277D01*
X60656D01*
Y223036D01*
X59328D01*
Y222846D01*
X59139D01*
Y222467D01*
X58949D01*
Y223605D01*
X58759D01*
Y223794D01*
X59139D01*
Y223605D01*
D02*
G37*
G36*
X51740Y221518D02*
X51360D01*
Y221708D01*
X51740D01*
Y221518D01*
D02*
G37*
G36*
X50791D02*
X50601D01*
Y221708D01*
X50791D01*
Y221518D01*
D02*
G37*
G36*
X63313Y221328D02*
X63123D01*
Y221518D01*
X63313D01*
Y221328D01*
D02*
G37*
G36*
X101256Y221138D02*
X101067D01*
Y221328D01*
X101256D01*
Y221138D01*
D02*
G37*
G36*
X63123D02*
X62933D01*
Y221328D01*
X63123D01*
Y221138D01*
D02*
G37*
G36*
X93857D02*
Y220949D01*
X93667D01*
Y221328D01*
X93857D01*
Y221138D01*
D02*
G37*
G36*
X92529Y220949D02*
X92339D01*
Y221138D01*
X92529D01*
Y220949D01*
D02*
G37*
G36*
X86838Y221518D02*
X86648D01*
Y220949D01*
X86458D01*
Y220759D01*
X86269D01*
Y221138D01*
X85889D01*
Y221328D01*
X84561D01*
Y221138D01*
X83992D01*
Y220759D01*
X84182D01*
Y219810D01*
X84371D01*
Y219241D01*
X85320D01*
Y219431D01*
X85699D01*
Y219810D01*
X85889D01*
Y220000D01*
X86079D01*
Y219241D01*
X86269D01*
Y218672D01*
X86079D01*
Y218862D01*
X85889D01*
Y219052D01*
X84940D01*
Y218862D01*
X84561D01*
Y217913D01*
X84751D01*
Y216965D01*
X84940D01*
Y216395D01*
X85130D01*
Y216585D01*
X85320D01*
Y216395D01*
X85510D01*
Y216585D01*
X86269D01*
Y216775D01*
X86648D01*
Y216965D01*
X86838D01*
Y217154D01*
X87027D01*
Y217724D01*
X87407D01*
Y217344D01*
X87597D01*
Y217154D01*
X87786D01*
Y216965D01*
X87976D01*
Y216775D01*
X87786D01*
Y216585D01*
X86648D01*
Y216395D01*
X85699D01*
Y216206D01*
X84751D01*
Y216016D01*
X83802D01*
Y216206D01*
X83992D01*
Y216395D01*
X84182D01*
Y216775D01*
X83992D01*
Y217724D01*
X83802D01*
Y218672D01*
X83233D01*
Y218862D01*
X83612D01*
Y219621D01*
X83423D01*
Y220759D01*
X83233D01*
Y220949D01*
X82854D01*
Y221138D01*
X83043D01*
Y221328D01*
X83992D01*
Y221518D01*
X84940D01*
Y221708D01*
X86079D01*
Y221897D01*
X86838D01*
Y221518D01*
D02*
G37*
G36*
X100308Y220569D02*
X100118D01*
Y220759D01*
X100308D01*
Y220569D01*
D02*
G37*
G36*
X61226Y220380D02*
X61036D01*
Y220569D01*
X61226D01*
Y220380D01*
D02*
G37*
G36*
X82474Y220190D02*
X82284D01*
Y220380D01*
X82474D01*
Y220190D01*
D02*
G37*
G36*
X98031Y221328D02*
X98221D01*
Y221138D01*
X98411D01*
Y220949D01*
X98790D01*
Y220759D01*
X98980D01*
Y220569D01*
X98790D01*
Y220380D01*
X98221D01*
Y220190D01*
X97841D01*
Y220000D01*
X97462D01*
Y219810D01*
X96893D01*
Y220000D01*
X97083D01*
Y220190D01*
X97462D01*
Y220380D01*
X97652D01*
Y220569D01*
X97841D01*
Y221518D01*
X98031D01*
Y221328D01*
D02*
G37*
G36*
X82284Y220569D02*
X82095D01*
Y220190D01*
X81905D01*
Y219810D01*
X81715D01*
Y220190D01*
X81525D01*
Y220380D01*
X81146D01*
Y220569D01*
X80197D01*
Y220380D01*
X80008D01*
Y220569D01*
X79818D01*
Y220380D01*
X79439D01*
Y220190D01*
X79628D01*
Y218482D01*
X80767D01*
Y218672D01*
X80956D01*
Y219052D01*
X81146D01*
Y219241D01*
X81336D01*
Y217724D01*
X81146D01*
Y217913D01*
X80956D01*
Y218103D01*
X80767D01*
Y218293D01*
X80577D01*
Y218103D01*
X79818D01*
Y216016D01*
X80008D01*
Y215826D01*
X80197D01*
Y215637D01*
X80387D01*
Y215447D01*
X78680D01*
Y215637D01*
X78870D01*
Y215826D01*
X79059D01*
Y217344D01*
X78870D01*
Y218103D01*
X78490D01*
Y218293D01*
X78870D01*
Y219431D01*
Y219621D01*
X78680D01*
Y220190D01*
X78490D01*
Y220380D01*
X78300D01*
Y220759D01*
X80387D01*
Y220949D01*
X82284D01*
Y220569D01*
D02*
G37*
G36*
X77921Y219810D02*
X77731D01*
Y220000D01*
X77921D01*
Y219810D01*
D02*
G37*
G36*
X86458Y219621D02*
X86269D01*
Y219810D01*
X86458D01*
Y219621D01*
D02*
G37*
G36*
X82284D02*
X82095D01*
Y219810D01*
X82284D01*
Y219621D01*
D02*
G37*
G36*
X77731Y220190D02*
X77541D01*
Y219810D01*
X77352D01*
Y219431D01*
X77162D01*
Y219621D01*
X76972D01*
Y220000D01*
X76593D01*
Y220190D01*
X74885D01*
Y218293D01*
X76024D01*
Y218482D01*
X76213D01*
Y218672D01*
X76403D01*
Y218862D01*
X76593D01*
Y217344D01*
X76403D01*
Y217534D01*
X76213D01*
Y217724D01*
X76024D01*
Y217913D01*
X74885D01*
Y215637D01*
X75075D01*
Y215447D01*
X75455D01*
Y215257D01*
X73557D01*
Y215447D01*
X73747D01*
Y215637D01*
X73937D01*
Y215826D01*
X74127D01*
Y217913D01*
X73368D01*
Y218103D01*
X73747D01*
Y218293D01*
X74127D01*
Y220190D01*
X73937D01*
Y220380D01*
X73747D01*
Y220569D01*
X77731D01*
Y220190D01*
D02*
G37*
G36*
X57621Y224364D02*
X58000D01*
Y224174D01*
X58380D01*
Y223984D01*
X58570D01*
Y223794D01*
X58190D01*
Y223605D01*
X58000D01*
Y223415D01*
X57811D01*
Y222846D01*
X57621D01*
Y222467D01*
X57431D01*
Y221897D01*
X57242D01*
Y221518D01*
X57052D01*
Y220949D01*
X56862D01*
Y220569D01*
X56672D01*
Y220190D01*
X56483D01*
Y219621D01*
X56293D01*
Y219431D01*
X56483D01*
Y219052D01*
X56293D01*
Y219241D01*
X55724D01*
Y219431D01*
X55344D01*
Y219621D01*
X55155D01*
Y219810D01*
X55534D01*
Y220000D01*
X55724D01*
Y220380D01*
X55914D01*
Y220759D01*
X56103D01*
Y221328D01*
X56293D01*
Y221708D01*
X56483D01*
Y222087D01*
X56672D01*
Y222656D01*
X56862D01*
Y223036D01*
X57052D01*
Y223605D01*
X57242D01*
Y224364D01*
X57052D01*
Y224553D01*
X57621D01*
Y224364D01*
D02*
G37*
G36*
X55534Y219052D02*
X55344D01*
Y219241D01*
X55534D01*
Y219052D01*
D02*
G37*
G36*
X95185Y218862D02*
X94995D01*
Y219052D01*
X95185D01*
Y218862D01*
D02*
G37*
G36*
X56862D02*
X56672D01*
Y219052D01*
X56862D01*
Y218862D01*
D02*
G37*
G36*
X55914D02*
X55724D01*
Y219052D01*
X55914D01*
Y218862D01*
D02*
G37*
G36*
X60656Y218672D02*
X60467D01*
Y218862D01*
X60656D01*
Y218672D01*
D02*
G37*
G36*
X83233Y218482D02*
X83043D01*
Y218672D01*
X83233D01*
Y218482D01*
D02*
G37*
G36*
X78490Y217913D02*
X78300D01*
Y218103D01*
X78490D01*
Y217913D01*
D02*
G37*
G36*
X80197Y217724D02*
X80008D01*
Y217913D01*
X80197D01*
Y217724D01*
D02*
G37*
G36*
X78300D02*
X78111D01*
Y217913D01*
X78300D01*
Y217724D01*
D02*
G37*
G36*
X73937Y217534D02*
X73747D01*
Y217724D01*
X73937D01*
Y217534D01*
D02*
G37*
G36*
X93288Y217154D02*
X93098D01*
Y217344D01*
X93288D01*
Y217154D01*
D02*
G37*
G36*
X91391Y222656D02*
X91770D01*
Y222467D01*
X91960D01*
Y222277D01*
X92150D01*
Y221138D01*
X91960D01*
Y220759D01*
X91770D01*
Y220569D01*
X91581D01*
Y220380D01*
X91201D01*
Y220190D01*
X91391D01*
Y219810D01*
X91770D01*
Y219431D01*
X92150D01*
Y219052D01*
X92529D01*
Y218862D01*
X92719D01*
Y218672D01*
X92909D01*
Y218482D01*
X93288D01*
Y218293D01*
X93667D01*
Y218103D01*
X93478D01*
Y217913D01*
X93288D01*
Y217724D01*
X93098D01*
Y217534D01*
X92909D01*
Y217344D01*
X92719D01*
Y217154D01*
X92529D01*
Y217724D01*
X92339D01*
Y217913D01*
X92150D01*
Y218293D01*
X91960D01*
Y218482D01*
X91770D01*
Y218862D01*
X91581D01*
Y219052D01*
X91391D01*
Y219431D01*
X91201D01*
Y219621D01*
X91011D01*
Y219810D01*
X90822D01*
Y220000D01*
X90632D01*
Y219810D01*
X90253D01*
Y219621D01*
X89873D01*
Y219052D01*
X90063D01*
Y218482D01*
X90253D01*
Y217913D01*
X90442D01*
Y217534D01*
X90822D01*
Y217344D01*
X90632D01*
Y217154D01*
X90063D01*
Y216965D01*
X89494D01*
Y217344D01*
X89683D01*
Y217724D01*
X89494D01*
Y218293D01*
X89304D01*
Y218862D01*
X89114D01*
Y219052D01*
X88735D01*
Y218862D01*
X88545D01*
Y219431D01*
X88925D01*
Y220000D01*
X88735D01*
Y220759D01*
X88545D01*
Y221328D01*
X88355D01*
Y221518D01*
X87976D01*
Y221708D01*
X88166D01*
Y221897D01*
X88355D01*
Y222087D01*
X88735D01*
Y222277D01*
X88925D01*
Y222467D01*
X89494D01*
Y222656D01*
X89873D01*
Y222846D01*
X91391D01*
Y222656D01*
D02*
G37*
G36*
X91581Y217154D02*
X91391D01*
Y217344D01*
X91581D01*
Y217154D01*
D02*
G37*
G36*
X93098Y216965D02*
X92909D01*
Y217154D01*
X93098D01*
Y216965D01*
D02*
G37*
G36*
X88735Y216585D02*
X88545D01*
Y216775D01*
X88735D01*
Y216585D01*
D02*
G37*
G36*
X66538Y221518D02*
X67486D01*
Y221328D01*
X68435D01*
Y221138D01*
X69004D01*
Y220949D01*
X69194D01*
Y220759D01*
X69384D01*
Y220569D01*
X69573D01*
Y220380D01*
X69763D01*
Y219810D01*
X69953D01*
Y219052D01*
Y218862D01*
Y218103D01*
X69763D01*
Y217344D01*
X69573D01*
Y216965D01*
X69384D01*
Y216775D01*
X69194D01*
Y216585D01*
X69004D01*
Y216395D01*
X68814D01*
Y216206D01*
X68435D01*
Y216016D01*
X66348D01*
Y216206D01*
X65399D01*
Y216395D01*
X65589D01*
Y216585D01*
X65779D01*
Y217344D01*
X65969D01*
Y218672D01*
X66158D01*
Y219621D01*
X66348D01*
Y220759D01*
X66538D01*
Y221138D01*
X66348D01*
Y221708D01*
X66538D01*
Y221518D01*
D02*
G37*
G36*
X80577Y215637D02*
X80387D01*
Y215826D01*
X80577D01*
Y215637D01*
D02*
G37*
G36*
X72799Y220569D02*
X72609D01*
Y220380D01*
X72419D01*
Y220000D01*
X72229D01*
Y217724D01*
X72040D01*
Y215826D01*
X72229D01*
Y215637D01*
X72609D01*
Y215447D01*
X71091D01*
Y215637D01*
X70901D01*
Y215826D01*
X71091D01*
Y216016D01*
X71281D01*
Y218293D01*
X71470D01*
Y220569D01*
X71281D01*
Y220949D01*
X72799D01*
Y220569D01*
D02*
G37*
G36*
X80956Y215068D02*
X80767D01*
Y215257D01*
X80956D01*
Y215068D01*
D02*
G37*
G36*
X72799D02*
X72609D01*
Y215257D01*
X72799D01*
Y215068D01*
D02*
G37*
G36*
X75834Y214878D02*
X75644D01*
Y215068D01*
X75834D01*
Y214878D01*
D02*
G37*
%LPC*%
G36*
X102205Y311634D02*
X101446D01*
Y311255D01*
X101256D01*
Y310875D01*
X101067D01*
Y310686D01*
X100877D01*
Y310306D01*
X100687D01*
Y310117D01*
X100497D01*
Y309737D01*
X100308D01*
Y309547D01*
X100118D01*
Y309168D01*
X99928D01*
Y308978D01*
X99739D01*
Y308599D01*
X99549D01*
Y308219D01*
X99359D01*
Y308030D01*
X99169D01*
Y307650D01*
X98980D01*
Y307271D01*
X99549D01*
Y307460D01*
X99739D01*
Y306891D01*
X100118D01*
Y306702D01*
X100687D01*
Y306512D01*
X101256D01*
Y306322D01*
X103533D01*
Y306512D01*
X103912D01*
Y306702D01*
X104292D01*
Y307081D01*
X104481D01*
Y307271D01*
X104671D01*
Y307650D01*
X104861D01*
Y309358D01*
X104671D01*
Y309737D01*
X104481D01*
Y309927D01*
X104292D01*
Y310306D01*
X104102D01*
Y310496D01*
X103912D01*
Y310686D01*
X103723D01*
Y310875D01*
X103343D01*
Y311065D01*
X102964D01*
Y311255D01*
X102774D01*
Y311445D01*
X102205D01*
Y311634D01*
D02*
G37*
%LPD*%
G36*
X101825Y310306D02*
X101636D01*
Y310117D01*
X101446D01*
Y310496D01*
X101636D01*
Y310686D01*
X101825D01*
Y310306D01*
D02*
G37*
G36*
X101446Y309927D02*
Y309737D01*
X101256D01*
Y309547D01*
X101067D01*
Y309927D01*
X101256D01*
Y310117D01*
X101446D01*
Y309927D01*
D02*
G37*
G36*
X101067Y309168D02*
X100877D01*
Y309358D01*
Y309547D01*
X101067D01*
Y309168D01*
D02*
G37*
G36*
X100877Y308978D02*
X100687D01*
Y309168D01*
X100877D01*
Y308978D01*
D02*
G37*
G36*
X102395Y310686D02*
X102774D01*
Y310496D01*
X102964D01*
Y310306D01*
X103343D01*
Y310117D01*
X103533D01*
Y309927D01*
X103723D01*
Y309737D01*
X103912D01*
Y309547D01*
X104102D01*
Y309358D01*
X104292D01*
Y308978D01*
X104481D01*
Y308789D01*
Y308599D01*
X104292D01*
Y308978D01*
X104102D01*
Y309168D01*
X103912D01*
Y309547D01*
X103723D01*
Y309737D01*
X103533D01*
Y309927D01*
X103153D01*
Y310117D01*
X102964D01*
Y310306D01*
X102774D01*
Y310496D01*
X102395D01*
Y310686D01*
X101825D01*
Y310875D01*
X102395D01*
Y310686D01*
D02*
G37*
G36*
X100687Y308599D02*
X100497D01*
Y308789D01*
Y308978D01*
X100687D01*
Y308599D01*
D02*
G37*
G36*
X100497Y308219D02*
X100308D01*
Y308030D01*
X100118D01*
Y308409D01*
X100308D01*
Y308599D01*
X100497D01*
Y308219D01*
D02*
G37*
G36*
X100118Y307650D02*
X99928D01*
Y307460D01*
X99739D01*
Y307840D01*
X99928D01*
Y308030D01*
X100118D01*
Y307650D01*
D02*
G37*
%LPC*%
G36*
X73178Y319223D02*
X72988D01*
Y319033D01*
X72799D01*
Y317705D01*
Y317516D01*
Y308599D01*
X73368D01*
Y318464D01*
X73747D01*
Y318654D01*
X75075D01*
Y318464D01*
X75834D01*
Y318274D01*
X76213D01*
Y318085D01*
X76403D01*
Y317895D01*
X76213D01*
Y318085D01*
X75644D01*
Y318274D01*
X73557D01*
Y315049D01*
X73747D01*
Y308599D01*
X75265D01*
Y308789D01*
X75644D01*
Y308978D01*
X76024D01*
Y309168D01*
X76213D01*
Y309358D01*
X76403D01*
Y309547D01*
X76593D01*
Y309737D01*
X76782D01*
Y309927D01*
X76972D01*
Y310306D01*
X77162D01*
Y310686D01*
X77352D01*
Y311065D01*
X77541D01*
Y311824D01*
X77731D01*
Y313531D01*
X77921D01*
Y314290D01*
X77731D01*
Y315998D01*
X77541D01*
Y316567D01*
X77352D01*
Y317136D01*
X77162D01*
Y317516D01*
X76972D01*
Y317705D01*
X76782D01*
Y318085D01*
X76593D01*
Y318274D01*
X76213D01*
Y318464D01*
X76024D01*
Y318654D01*
X75644D01*
Y318844D01*
X75075D01*
Y319033D01*
X73178D01*
Y319223D01*
D02*
G37*
G36*
X49653Y311824D02*
X49084D01*
Y311634D01*
X48325D01*
Y311445D01*
X47945D01*
Y311255D01*
X47756D01*
Y311065D01*
X47566D01*
Y310875D01*
X47376D01*
Y310686D01*
X46997D01*
Y310306D01*
X46807D01*
Y310117D01*
X46617D01*
Y309358D01*
X46427D01*
Y308030D01*
X46617D01*
Y307271D01*
X46807D01*
Y306702D01*
X46997D01*
Y306322D01*
X47186D01*
Y305943D01*
X47376D01*
Y305563D01*
X47566D01*
Y305184D01*
X47756D01*
Y304804D01*
X47945D01*
Y304615D01*
X48135D01*
Y304235D01*
X48325D01*
Y304046D01*
X48514D01*
Y303666D01*
X48704D01*
Y303476D01*
X48894D01*
Y303287D01*
X49084D01*
Y303097D01*
X49273D01*
Y302907D01*
X49463D01*
Y302718D01*
X49653D01*
Y302528D01*
X49843D01*
Y302338D01*
X50032D01*
Y302148D01*
X50412D01*
Y301959D01*
X50791D01*
Y301769D01*
X51171D01*
Y301579D01*
X52688D01*
Y301769D01*
X53068D01*
Y301959D01*
X53447D01*
Y302148D01*
X53827D01*
Y302338D01*
X54016D01*
Y302528D01*
X54206D01*
Y302718D01*
X54396D01*
Y303097D01*
X54585D01*
Y303476D01*
X54775D01*
Y305563D01*
X54585D01*
Y306133D01*
X54396D01*
Y306702D01*
X54206D01*
Y307081D01*
X54016D01*
Y307460D01*
X53827D01*
Y307840D01*
X53637D01*
Y308030D01*
X53447D01*
Y308409D01*
X53257D01*
Y308789D01*
X53068D01*
Y308978D01*
X52878D01*
Y309358D01*
X52688D01*
Y309547D01*
X52498D01*
Y309737D01*
X52309D01*
Y310117D01*
X52119D01*
Y310306D01*
X51929D01*
Y310496D01*
X51740D01*
Y310686D01*
X51550D01*
Y310875D01*
X51360D01*
Y311065D01*
X51171D01*
Y311255D01*
X50791D01*
Y311445D01*
X50412D01*
Y311634D01*
X49653D01*
Y311824D01*
D02*
G37*
%LPD*%
G36*
X49843Y311065D02*
X49084D01*
Y311255D01*
X49843D01*
Y311065D01*
D02*
G37*
G36*
X49084Y310875D02*
X48704D01*
Y311065D01*
X49084D01*
Y310875D01*
D02*
G37*
G36*
X48704Y310686D02*
X48325D01*
Y310875D01*
X48704D01*
Y310686D01*
D02*
G37*
G36*
X48325Y310496D02*
X48135D01*
Y310686D01*
X48325D01*
Y310496D01*
D02*
G37*
G36*
X48135Y310306D02*
X47945D01*
Y310496D01*
X48135D01*
Y310306D01*
D02*
G37*
G36*
X47945Y310117D02*
X47756D01*
Y310306D01*
X47945D01*
Y310117D01*
D02*
G37*
G36*
X47756Y309737D02*
X47566D01*
Y310117D01*
X47756D01*
Y309737D01*
D02*
G37*
G36*
X47566Y309547D02*
Y309168D01*
X47376D01*
Y309737D01*
X47566D01*
Y309547D01*
D02*
G37*
G36*
X47376Y308409D02*
X47566D01*
Y307460D01*
X47756D01*
Y307081D01*
X47945D01*
Y306512D01*
X48135D01*
Y306133D01*
X48325D01*
Y305753D01*
X48514D01*
Y305563D01*
X48704D01*
Y305184D01*
X48894D01*
Y304804D01*
X49084D01*
Y304615D01*
X49273D01*
Y304235D01*
X49463D01*
Y304046D01*
X49653D01*
Y303856D01*
X49843D01*
Y303666D01*
X50032D01*
Y303476D01*
X50222D01*
Y303287D01*
X50412D01*
Y303097D01*
X50601D01*
Y302907D01*
X50791D01*
Y302718D01*
X50981D01*
Y302528D01*
X51360D01*
Y302338D01*
X51740D01*
Y302148D01*
X51171D01*
Y302338D01*
X50981D01*
Y302528D01*
X50601D01*
Y302718D01*
X50412D01*
Y302907D01*
X50222D01*
Y303097D01*
X50032D01*
Y303287D01*
X49843D01*
Y303476D01*
X49653D01*
Y303666D01*
X49463D01*
Y303856D01*
X49273D01*
Y304235D01*
X49084D01*
Y304425D01*
X48894D01*
Y304615D01*
X48704D01*
Y304804D01*
Y304994D01*
X48514D01*
Y305374D01*
X48325D01*
Y305563D01*
X48135D01*
Y305943D01*
X47945D01*
Y306322D01*
X47756D01*
Y306891D01*
X47566D01*
Y307460D01*
X47376D01*
Y308030D01*
Y308219D01*
X47186D01*
Y309168D01*
X47376D01*
Y308409D01*
D02*
G37*
G36*
X52309Y301959D02*
X51929D01*
Y302148D01*
X52309D01*
Y301959D01*
D02*
G37*
%LPC*%
G36*
X86269Y294560D02*
X85510D01*
Y294370D01*
X85130D01*
Y294180D01*
X84940D01*
Y293990D01*
X84751D01*
Y293801D01*
X84561D01*
Y293611D01*
X84371D01*
Y293421D01*
X84182D01*
Y293232D01*
X83992D01*
Y292473D01*
X84182D01*
Y292093D01*
X84371D01*
Y291904D01*
X84561D01*
Y291714D01*
X84751D01*
Y291334D01*
X84940D01*
Y291145D01*
X85130D01*
Y290955D01*
X85320D01*
Y290576D01*
X85510D01*
Y290386D01*
X85699D01*
Y290196D01*
X85889D01*
Y290006D01*
X86648D01*
Y290196D01*
X86838D01*
Y290576D01*
X87027D01*
Y290955D01*
X87217D01*
Y291145D01*
X87407D01*
Y291714D01*
X87597D01*
Y292093D01*
X87786D01*
Y292473D01*
X87597D01*
Y293042D01*
X87407D01*
Y293232D01*
X87217D01*
Y293421D01*
X87027D01*
Y293801D01*
X86838D01*
Y293990D01*
X86648D01*
Y294180D01*
X86458D01*
Y294370D01*
X86269D01*
Y294560D01*
D02*
G37*
G36*
X93478Y298734D02*
X92150D01*
Y298544D01*
X91770D01*
Y298354D01*
X91391D01*
Y298164D01*
X90822D01*
Y297975D01*
X90632D01*
Y297785D01*
X90442D01*
Y297595D01*
X90063D01*
Y297405D01*
X89683D01*
Y297216D01*
X89494D01*
Y297026D01*
X89304D01*
Y296836D01*
X89114D01*
Y296457D01*
X88925D01*
Y296267D01*
X88735D01*
Y296077D01*
X88545D01*
Y295698D01*
X88355D01*
Y295508D01*
X88166D01*
Y295319D01*
X87976D01*
Y294939D01*
X88355D01*
Y295129D01*
X88545D01*
Y295508D01*
X88925D01*
Y295888D01*
X89114D01*
Y296077D01*
X89304D01*
Y296267D01*
X89494D01*
Y296457D01*
X89683D01*
Y296646D01*
X89873D01*
Y296836D01*
X90063D01*
Y297026D01*
X90253D01*
Y297216D01*
X90442D01*
Y297405D01*
X91011D01*
Y297595D01*
X91391D01*
Y297785D01*
X91770D01*
Y297975D01*
X93857D01*
Y297785D01*
X94237D01*
Y297595D01*
X94426D01*
Y297405D01*
X94806D01*
Y297216D01*
X94995D01*
Y296836D01*
X95185D01*
Y296646D01*
X95375D01*
Y296457D01*
X95565D01*
Y296077D01*
X95754D01*
Y295698D01*
X95944D01*
Y292663D01*
X95754D01*
Y292283D01*
X95565D01*
Y291714D01*
X95375D01*
Y291334D01*
X95185D01*
Y290955D01*
X94995D01*
Y290576D01*
X94806D01*
Y290386D01*
X94616D01*
Y290006D01*
X94426D01*
Y289817D01*
X94237D01*
Y289627D01*
X94047D01*
Y289247D01*
X93857D01*
Y289058D01*
X93667D01*
Y288868D01*
X93478D01*
Y288489D01*
X93288D01*
Y288299D01*
X93098D01*
Y288109D01*
X92909D01*
Y287920D01*
X92719D01*
Y287730D01*
X92529D01*
Y287350D01*
X92339D01*
Y287161D01*
X92150D01*
Y286971D01*
X91960D01*
Y286781D01*
X91770D01*
Y286591D01*
X91581D01*
Y286212D01*
X91391D01*
Y286022D01*
X91201D01*
Y285643D01*
X91011D01*
Y285453D01*
X90822D01*
Y285263D01*
X90632D01*
Y285074D01*
X90442D01*
Y284884D01*
X90253D01*
Y284694D01*
X90063D01*
Y284505D01*
X89873D01*
Y284125D01*
X89683D01*
Y283935D01*
X89494D01*
Y283746D01*
X89304D01*
Y283556D01*
X89114D01*
Y283176D01*
X88925D01*
Y282987D01*
X88735D01*
Y282797D01*
X88545D01*
Y282418D01*
X88355D01*
Y282228D01*
X88166D01*
Y282038D01*
X87976D01*
Y281849D01*
X87786D01*
Y281659D01*
X87597D01*
Y281469D01*
X87407D01*
Y281279D01*
X87217D01*
Y280900D01*
X87027D01*
Y280710D01*
X86838D01*
Y280520D01*
X86648D01*
Y280141D01*
X86458D01*
Y279951D01*
X86269D01*
Y279762D01*
X86079D01*
Y279572D01*
X85889D01*
Y279192D01*
X85699D01*
Y279003D01*
X85510D01*
Y278813D01*
X85320D01*
Y278434D01*
X85130D01*
Y278054D01*
X84940D01*
Y277675D01*
X84751D01*
Y276916D01*
X84561D01*
Y275398D01*
X84371D01*
Y274639D01*
X84561D01*
Y273501D01*
X84751D01*
Y272742D01*
X84940D01*
Y272362D01*
X85130D01*
Y272173D01*
X85320D01*
Y271983D01*
X85510D01*
Y271604D01*
X85699D01*
Y271414D01*
X85889D01*
Y271224D01*
X86079D01*
Y270845D01*
X86269D01*
Y270655D01*
X86458D01*
Y270465D01*
X86648D01*
Y270276D01*
X86838D01*
Y269896D01*
X87217D01*
Y270465D01*
X87027D01*
Y270655D01*
X86838D01*
Y270845D01*
X86648D01*
Y271224D01*
X86458D01*
Y271414D01*
X86269D01*
Y271604D01*
X86079D01*
Y271793D01*
X85889D01*
Y271983D01*
X85699D01*
Y272362D01*
X85510D01*
Y272552D01*
X85320D01*
Y273121D01*
X85130D01*
Y273691D01*
X84940D01*
Y274070D01*
X84751D01*
Y275967D01*
X84940D01*
Y276536D01*
X85130D01*
Y277295D01*
X85320D01*
Y277675D01*
X85510D01*
Y278054D01*
X85699D01*
Y278434D01*
X85889D01*
Y278813D01*
X86079D01*
Y279003D01*
X86269D01*
Y279382D01*
X86458D01*
Y279572D01*
X86648D01*
Y279951D01*
X86838D01*
Y280141D01*
X87027D01*
Y280331D01*
X87217D01*
Y280520D01*
X87407D01*
Y280710D01*
X87597D01*
Y280900D01*
X87786D01*
Y281279D01*
X87976D01*
Y281469D01*
X88166D01*
Y281659D01*
X88355D01*
Y281849D01*
X88545D01*
Y282038D01*
X88735D01*
Y282418D01*
X88925D01*
Y282607D01*
X89114D01*
Y282987D01*
X89304D01*
Y283176D01*
X89494D01*
Y283366D01*
X89683D01*
Y283556D01*
X89873D01*
Y283746D01*
X90063D01*
Y283935D01*
X90253D01*
Y284315D01*
X90442D01*
Y284505D01*
X90632D01*
Y284694D01*
X90822D01*
Y284884D01*
X91011D01*
Y285074D01*
X91201D01*
Y285453D01*
X91391D01*
Y285643D01*
X91581D01*
Y286022D01*
X91960D01*
Y286402D01*
X92150D01*
Y286591D01*
X92339D01*
Y286781D01*
X92529D01*
Y286971D01*
X92719D01*
Y287350D01*
X92909D01*
Y287540D01*
X93098D01*
Y287730D01*
X93288D01*
Y287920D01*
X93478D01*
Y288299D01*
X93667D01*
Y288489D01*
X93857D01*
Y288678D01*
X94047D01*
Y288868D01*
X94237D01*
Y289247D01*
X94426D01*
Y289437D01*
X94616D01*
Y289627D01*
X94806D01*
Y289817D01*
X94995D01*
Y290196D01*
X95185D01*
Y290386D01*
X95375D01*
Y290576D01*
X95565D01*
Y291145D01*
X95754D01*
Y291524D01*
X95944D01*
Y292283D01*
X96134D01*
Y292852D01*
X96324D01*
Y293611D01*
X96513D01*
Y294939D01*
X96324D01*
Y295508D01*
X96134D01*
Y296077D01*
X95944D01*
Y296457D01*
X95754D01*
Y297026D01*
X95565D01*
Y297216D01*
X95375D01*
Y297405D01*
X95185D01*
Y297595D01*
X94995D01*
Y297785D01*
X94806D01*
Y297975D01*
X94616D01*
Y298164D01*
X94047D01*
Y298354D01*
X93857D01*
Y298544D01*
X93478D01*
Y298734D01*
D02*
G37*
G36*
X82664Y292473D02*
X82284D01*
Y292283D01*
X81905D01*
Y292093D01*
X81715D01*
Y291904D01*
X81525D01*
Y291714D01*
X81336D01*
Y291524D01*
X81146D01*
Y291145D01*
X80956D01*
Y290955D01*
X80767D01*
Y290765D01*
X80577D01*
Y290576D01*
X80387D01*
Y290386D01*
X80197D01*
Y290196D01*
X80008D01*
Y289817D01*
X79818D01*
Y289627D01*
X79628D01*
Y289437D01*
X79439D01*
Y289247D01*
X79249D01*
Y289058D01*
X79059D01*
Y288868D01*
X78870D01*
Y288678D01*
X78680D01*
Y288489D01*
X78490D01*
Y288299D01*
X78300D01*
Y287920D01*
X78111D01*
Y287730D01*
X77921D01*
Y287540D01*
X77731D01*
Y287350D01*
X77541D01*
Y287161D01*
X77352D01*
Y286781D01*
X77162D01*
Y286591D01*
X76972D01*
Y286402D01*
X76782D01*
Y286212D01*
X76593D01*
Y286022D01*
X76403D01*
Y285833D01*
X76213D01*
Y285453D01*
X76024D01*
Y285263D01*
X75834D01*
Y285074D01*
X75644D01*
Y284884D01*
X75455D01*
Y284694D01*
X75265D01*
Y284315D01*
X75075D01*
Y284125D01*
X74885D01*
Y283935D01*
X74506D01*
Y283556D01*
X74316D01*
Y283366D01*
X74127D01*
Y283176D01*
X73937D01*
Y282987D01*
X73747D01*
Y282797D01*
X73557D01*
Y282418D01*
X73368D01*
Y282228D01*
X73178D01*
Y282038D01*
X72988D01*
Y281849D01*
X72799D01*
Y281659D01*
X72609D01*
Y281279D01*
X72419D01*
Y281090D01*
X72229D01*
Y280900D01*
X72040D01*
Y280710D01*
X71850D01*
Y280520D01*
X71660D01*
Y280331D01*
X71470D01*
Y280141D01*
X71281D01*
Y279951D01*
X71091D01*
Y279572D01*
X70901D01*
Y279382D01*
X70711D01*
Y279192D01*
X70522D01*
Y279003D01*
X70332D01*
Y278813D01*
X70142D01*
Y278623D01*
X69953D01*
Y278434D01*
X69763D01*
Y278244D01*
X69573D01*
Y278054D01*
X69384D01*
Y277675D01*
X69194D01*
Y277485D01*
X69004D01*
Y277106D01*
X68814D01*
Y276916D01*
X68625D01*
Y276726D01*
X68435D01*
Y276536D01*
X68245D01*
Y276347D01*
X68056D01*
Y276157D01*
X67866D01*
Y275967D01*
X67676D01*
Y275777D01*
X67486D01*
Y275588D01*
X67297D01*
Y275398D01*
X67107D01*
Y275019D01*
X66917D01*
Y274829D01*
X66727D01*
Y274450D01*
X66538D01*
Y274260D01*
X66348D01*
Y273880D01*
X66158D01*
Y273691D01*
X65969D01*
Y272932D01*
X66158D01*
Y272552D01*
X66348D01*
Y272362D01*
X66538D01*
Y271983D01*
X66727D01*
Y271604D01*
X66917D01*
Y271224D01*
X67107D01*
Y271035D01*
X67297D01*
Y270845D01*
X67486D01*
Y270655D01*
X67676D01*
Y270465D01*
X67866D01*
Y270276D01*
X68056D01*
Y269896D01*
X68245D01*
Y269706D01*
X68435D01*
Y269517D01*
X68625D01*
Y269327D01*
X68814D01*
Y268948D01*
X69004D01*
Y268758D01*
X69194D01*
Y268568D01*
X69384D01*
Y268379D01*
X69573D01*
Y267999D01*
X69953D01*
Y267809D01*
X70711D01*
Y267999D01*
X70901D01*
Y268189D01*
X71091D01*
Y268568D01*
X71281D01*
Y268758D01*
X71470D01*
Y268948D01*
X71660D01*
Y269137D01*
X71850D01*
Y269327D01*
X72040D01*
Y269706D01*
X72229D01*
Y269896D01*
X72419D01*
Y270086D01*
X72609D01*
Y270465D01*
X72799D01*
Y270655D01*
X72988D01*
Y270845D01*
X73178D01*
Y271035D01*
X73368D01*
Y271414D01*
X73557D01*
Y271604D01*
X73747D01*
Y271983D01*
X74127D01*
Y272362D01*
X74316D01*
Y272552D01*
X74506D01*
Y272932D01*
X74696D01*
Y273121D01*
X74885D01*
Y273311D01*
X75075D01*
Y273691D01*
X75265D01*
Y273880D01*
X75455D01*
Y274070D01*
X75644D01*
Y274450D01*
X75834D01*
Y274639D01*
X76024D01*
Y274829D01*
X76213D01*
Y275019D01*
X76403D01*
Y275398D01*
X76593D01*
Y275588D01*
X76782D01*
Y275777D01*
X76972D01*
Y276157D01*
X77162D01*
Y276347D01*
X77352D01*
Y276536D01*
X77541D01*
Y276726D01*
X77731D01*
Y277106D01*
X77921D01*
Y277295D01*
X78111D01*
Y277675D01*
X78300D01*
Y277864D01*
X78490D01*
Y278054D01*
X78680D01*
Y278244D01*
X78870D01*
Y278623D01*
X79059D01*
Y278813D01*
X79249D01*
Y279003D01*
X79439D01*
Y279192D01*
X79628D01*
Y279572D01*
X79818D01*
Y279762D01*
X80008D01*
Y280141D01*
X80197D01*
Y280331D01*
X80387D01*
Y280520D01*
X80577D01*
Y280900D01*
X80767D01*
Y281090D01*
X80956D01*
Y281279D01*
X81146D01*
Y281469D01*
X81336D01*
Y281849D01*
X81525D01*
Y282038D01*
X81715D01*
Y282228D01*
X81905D01*
Y282418D01*
X82095D01*
Y282797D01*
X82284D01*
Y282987D01*
X82474D01*
Y283366D01*
X82664D01*
Y283556D01*
X82854D01*
Y283746D01*
X83043D01*
Y283935D01*
X83233D01*
Y284315D01*
X83423D01*
Y284505D01*
X83612D01*
Y284694D01*
X83802D01*
Y285074D01*
X83992D01*
Y285263D01*
X84182D01*
Y285453D01*
X84371D01*
Y285643D01*
X84561D01*
Y286022D01*
X84751D01*
Y286212D01*
X84940D01*
Y286402D01*
X85130D01*
Y286781D01*
X85320D01*
Y286971D01*
X85510D01*
Y287161D01*
X85699D01*
Y287540D01*
X85889D01*
Y288678D01*
X85699D01*
Y289058D01*
X85510D01*
Y289247D01*
X85320D01*
Y289627D01*
X85130D01*
Y289817D01*
X84940D01*
Y290006D01*
X84751D01*
Y290386D01*
X84561D01*
Y290576D01*
X84371D01*
Y290765D01*
X84182D01*
Y291145D01*
X83802D01*
Y291524D01*
X83612D01*
Y291714D01*
X83423D01*
Y291904D01*
X83233D01*
Y292093D01*
X83043D01*
Y292283D01*
X82664D01*
Y292473D01*
D02*
G37*
G36*
X64640Y272932D02*
X64451D01*
Y272742D01*
X64071D01*
Y272552D01*
X63882D01*
Y272362D01*
X63692D01*
Y271983D01*
X63502D01*
Y271793D01*
X63313D01*
Y270845D01*
X63502D01*
Y270465D01*
X63692D01*
Y270276D01*
X63882D01*
Y270086D01*
X64071D01*
Y269896D01*
X64261D01*
Y269517D01*
X64451D01*
Y269327D01*
X64640D01*
Y269137D01*
X64830D01*
Y268758D01*
X65020D01*
Y268568D01*
X65210D01*
Y268379D01*
X65399D01*
Y268189D01*
X65589D01*
Y267999D01*
X65779D01*
Y267620D01*
X65969D01*
Y267430D01*
X66158D01*
Y267240D01*
X66538D01*
Y267050D01*
X66727D01*
Y266481D01*
X66917D01*
Y266292D01*
X67107D01*
Y265912D01*
X67297D01*
Y265722D01*
X67486D01*
Y265533D01*
X67676D01*
Y265343D01*
X67866D01*
Y265153D01*
X68056D01*
Y264963D01*
X68245D01*
Y264774D01*
X68435D01*
Y264584D01*
X69004D01*
Y264774D01*
X69194D01*
Y264963D01*
X69384D01*
Y265153D01*
X69573D01*
Y265343D01*
X69763D01*
Y265722D01*
X69953D01*
Y266481D01*
X69763D01*
Y266861D01*
X69573D01*
Y267240D01*
X69194D01*
Y267430D01*
X69004D01*
Y267809D01*
X68814D01*
Y267999D01*
X68625D01*
Y268189D01*
X68435D01*
Y268568D01*
X68245D01*
Y268758D01*
X68056D01*
Y268948D01*
X67866D01*
Y269137D01*
X67676D01*
Y269327D01*
X67486D01*
Y269517D01*
X67297D01*
Y269896D01*
X67107D01*
Y270086D01*
X66917D01*
Y270276D01*
X66727D01*
Y270845D01*
X66538D01*
Y271035D01*
X66348D01*
Y271224D01*
X66158D01*
Y271414D01*
X65969D01*
Y271793D01*
X65779D01*
Y271983D01*
X65589D01*
Y272173D01*
X65399D01*
Y272362D01*
X65210D01*
Y272552D01*
X64830D01*
Y272742D01*
X64640D01*
Y272932D01*
D02*
G37*
G36*
X67486Y260600D02*
X67297D01*
Y260410D01*
X67486D01*
Y260600D01*
D02*
G37*
G36*
X62174Y270655D02*
X61795D01*
Y270465D01*
X61605D01*
Y269896D01*
X61415D01*
Y269706D01*
X61226D01*
Y269327D01*
X61036D01*
Y269137D01*
X60846D01*
Y268948D01*
X60656D01*
Y268758D01*
X60467D01*
Y268568D01*
X60277D01*
Y268379D01*
X60087D01*
Y268189D01*
X59708D01*
Y267430D01*
X59898D01*
Y267240D01*
X60087D01*
Y267050D01*
X60277D01*
Y266861D01*
X60467D01*
Y266671D01*
X60656D01*
Y266292D01*
X60846D01*
Y266102D01*
X61036D01*
Y265912D01*
X61415D01*
Y265533D01*
X61605D01*
Y265153D01*
X61795D01*
Y264963D01*
X62174D01*
Y264774D01*
X62364D01*
Y265343D01*
X62554D01*
Y265722D01*
X62743D01*
Y265912D01*
X62933D01*
Y266102D01*
X63123D01*
Y266292D01*
X63313D01*
Y266671D01*
X63502D01*
Y266861D01*
X63692D01*
Y267050D01*
X63882D01*
Y267240D01*
X64640D01*
Y266861D01*
X64451D01*
Y266481D01*
X64261D01*
Y266292D01*
X64071D01*
Y266102D01*
X63882D01*
Y265722D01*
X63692D01*
Y265533D01*
X63502D01*
Y265343D01*
X63313D01*
Y264963D01*
X62933D01*
Y264774D01*
X62554D01*
Y264015D01*
X62743D01*
Y263825D01*
X62933D01*
Y263636D01*
X63123D01*
Y263446D01*
X63313D01*
Y263066D01*
X63502D01*
Y262877D01*
X63692D01*
Y262687D01*
X63882D01*
Y262497D01*
X64261D01*
Y262307D01*
X64451D01*
Y261738D01*
X64640D01*
Y261549D01*
X64830D01*
Y261169D01*
X65210D01*
Y260790D01*
X65399D01*
Y260600D01*
X65589D01*
Y260410D01*
X65779D01*
Y260221D01*
X65969D01*
Y260031D01*
X66158D01*
Y260221D01*
X66348D01*
Y260790D01*
X66538D01*
Y261169D01*
X66727D01*
Y261738D01*
X66917D01*
Y261928D01*
X67107D01*
Y262307D01*
X67486D01*
Y262497D01*
X67866D01*
Y262687D01*
X68245D01*
Y263066D01*
X68056D01*
Y263636D01*
X67676D01*
Y263825D01*
X67486D01*
Y264015D01*
X67297D01*
Y264205D01*
X67107D01*
Y264584D01*
X66917D01*
Y264963D01*
X66727D01*
Y265153D01*
X66538D01*
Y265533D01*
X66348D01*
Y265912D01*
X66158D01*
Y266102D01*
X65969D01*
Y266292D01*
X65589D01*
Y266671D01*
X65399D01*
Y267050D01*
X65210D01*
Y267240D01*
X64640D01*
Y267809D01*
X64451D01*
Y267999D01*
X64261D01*
Y268189D01*
X64071D01*
Y268379D01*
X63882D01*
Y268568D01*
X63692D01*
Y268758D01*
X63502D01*
Y269137D01*
X63313D01*
Y269327D01*
X63123D01*
Y269517D01*
X62933D01*
Y269706D01*
X62743D01*
Y269896D01*
X62554D01*
Y270276D01*
X62364D01*
Y270465D01*
X62174D01*
Y270655D01*
D02*
G37*
G36*
X60087Y263256D02*
X59328D01*
Y263066D01*
X59139D01*
Y262877D01*
X58949D01*
Y262687D01*
X58759D01*
Y262307D01*
X58380D01*
Y261928D01*
X58190D01*
Y261738D01*
X58000D01*
Y261549D01*
X57811D01*
Y261169D01*
X57621D01*
Y260979D01*
X57431D01*
Y260790D01*
X57242D01*
Y260600D01*
X57052D01*
Y260221D01*
X56862D01*
Y260031D01*
X56672D01*
Y259841D01*
X56483D01*
Y259651D01*
X56293D01*
Y259462D01*
X56103D01*
Y259272D01*
X55914D01*
Y258892D01*
X55724D01*
Y258513D01*
X55534D01*
Y258323D01*
X55344D01*
Y258134D01*
X55155D01*
Y257944D01*
X54965D01*
Y257754D01*
X54775D01*
Y257565D01*
X54585D01*
Y257375D01*
X54396D01*
Y257185D01*
X54206D01*
Y256806D01*
X54016D01*
Y256616D01*
X53827D01*
Y256426D01*
X53637D01*
Y256047D01*
X53447D01*
Y255857D01*
X53257D01*
Y255667D01*
X53068D01*
Y255478D01*
X52878D01*
Y255288D01*
X52688D01*
Y254908D01*
X52498D01*
Y254719D01*
X52309D01*
Y254529D01*
X52119D01*
Y254339D01*
X51929D01*
Y254150D01*
X51740D01*
Y253960D01*
X51550D01*
Y253580D01*
X51360D01*
Y253391D01*
X51171D01*
Y253011D01*
X50981D01*
Y252822D01*
X50791D01*
Y252632D01*
X50601D01*
Y252442D01*
X50412D01*
Y252252D01*
X50222D01*
Y252063D01*
X50032D01*
Y251683D01*
X49843D01*
Y251493D01*
X49653D01*
Y251304D01*
X49463D01*
Y251114D01*
X49273D01*
Y250735D01*
X49084D01*
Y250545D01*
X48894D01*
Y250355D01*
X48704D01*
Y250165D01*
X48514D01*
Y249976D01*
X48325D01*
Y249596D01*
X48135D01*
Y249407D01*
X47945D01*
Y249217D01*
X47756D01*
Y249027D01*
X47566D01*
Y248648D01*
X47376D01*
Y248458D01*
X47186D01*
Y248268D01*
X46997D01*
Y248078D01*
X46807D01*
Y247699D01*
X46617D01*
Y247509D01*
X46427D01*
Y247320D01*
X46238D01*
Y247130D01*
X46048D01*
Y246940D01*
X45858D01*
Y246561D01*
X45669D01*
Y246371D01*
X45479D01*
Y246181D01*
X45289D01*
Y245992D01*
X45100D01*
Y245802D01*
X44910D01*
Y245422D01*
X44720D01*
Y245233D01*
X44530D01*
Y245043D01*
X44341D01*
Y244664D01*
X44151D01*
Y244474D01*
X43961D01*
Y244284D01*
X43772D01*
Y244095D01*
X43582D01*
Y243905D01*
X43392D01*
Y243525D01*
X43202D01*
Y242766D01*
X43392D01*
Y242387D01*
X43582D01*
Y242008D01*
X43772D01*
Y241818D01*
X43961D01*
Y241628D01*
X44151D01*
Y241438D01*
X44341D01*
Y241249D01*
X44530D01*
Y240869D01*
X44720D01*
Y240679D01*
X44910D01*
Y240490D01*
X45100D01*
Y240300D01*
X45289D01*
Y240110D01*
X45479D01*
Y239921D01*
X45858D01*
Y240110D01*
X46238D01*
Y240300D01*
X46427D01*
Y240490D01*
X46617D01*
Y240679D01*
X46807D01*
Y241059D01*
X46997D01*
Y241249D01*
X47186D01*
Y241438D01*
X47376D01*
Y241628D01*
X47566D01*
Y242008D01*
X47756D01*
Y242197D01*
X47945D01*
Y242387D01*
X48135D01*
Y242577D01*
X48325D01*
Y242956D01*
X48514D01*
Y243146D01*
X48704D01*
Y243336D01*
X48894D01*
Y243525D01*
X49084D01*
Y243905D01*
X49273D01*
Y244095D01*
X49463D01*
Y244284D01*
X49653D01*
Y244474D01*
X49843D01*
Y244664D01*
X50032D01*
Y245043D01*
X50222D01*
Y245233D01*
X50412D01*
Y245422D01*
X50601D01*
Y245612D01*
X50791D01*
Y245802D01*
X50981D01*
Y245992D01*
X51171D01*
Y246371D01*
X51360D01*
Y246561D01*
X51550D01*
Y246940D01*
X51740D01*
Y247130D01*
X51929D01*
Y247320D01*
X52119D01*
Y247509D01*
X52309D01*
Y247699D01*
X52498D01*
Y247889D01*
X52688D01*
Y248268D01*
X52878D01*
Y248458D01*
X53068D01*
Y248648D01*
X53257D01*
Y248837D01*
X53447D01*
Y249217D01*
X53637D01*
Y249407D01*
X53827D01*
Y249596D01*
X54016D01*
Y249786D01*
X54206D01*
Y250165D01*
X54396D01*
Y250355D01*
X54585D01*
Y250545D01*
X54775D01*
Y250735D01*
X54965D01*
Y250924D01*
X55155D01*
Y251304D01*
X55344D01*
Y251493D01*
X55534D01*
Y251683D01*
X55724D01*
Y252063D01*
X55914D01*
Y252252D01*
X56103D01*
Y252442D01*
X56293D01*
Y252632D01*
X56483D01*
Y252822D01*
X56672D01*
Y253011D01*
X56862D01*
Y253391D01*
X57052D01*
Y253580D01*
X57242D01*
Y253770D01*
X57431D01*
Y253960D01*
X57621D01*
Y254150D01*
X57811D01*
Y254529D01*
X58000D01*
Y254719D01*
X58190D01*
Y255098D01*
X58380D01*
Y255288D01*
X58570D01*
Y255478D01*
X58759D01*
Y255667D01*
X58949D01*
Y255857D01*
X59139D01*
Y256047D01*
X59328D01*
Y256236D01*
X59518D01*
Y256616D01*
X59708D01*
Y256806D01*
X59898D01*
Y256995D01*
X60087D01*
Y257375D01*
X60277D01*
Y257565D01*
X60467D01*
Y257754D01*
X60656D01*
Y257944D01*
X60846D01*
Y258134D01*
X61036D01*
Y258513D01*
X61226D01*
Y258703D01*
X61415D01*
Y258892D01*
X61605D01*
Y259082D01*
X61795D01*
Y259272D01*
X61985D01*
Y259651D01*
X62174D01*
Y260410D01*
X61985D01*
Y260600D01*
X61795D01*
Y260790D01*
X60656D01*
Y260979D01*
X60467D01*
Y261169D01*
X59708D01*
Y260410D01*
X59898D01*
Y260221D01*
X60087D01*
Y259082D01*
X59898D01*
Y258703D01*
X59518D01*
Y258513D01*
X58759D01*
Y258703D01*
X58570D01*
Y258892D01*
X58190D01*
Y258703D01*
X58000D01*
Y258134D01*
X58190D01*
Y257754D01*
X58380D01*
Y256995D01*
X58190D01*
Y256616D01*
X58000D01*
Y256426D01*
X57811D01*
Y256236D01*
X57242D01*
Y256426D01*
X57052D01*
Y256616D01*
X56862D01*
Y256806D01*
X56672D01*
Y256995D01*
X56483D01*
Y256806D01*
X56293D01*
Y256616D01*
X56103D01*
Y255667D01*
X56293D01*
Y255478D01*
X56483D01*
Y254719D01*
X56293D01*
Y254529D01*
X56103D01*
Y254150D01*
X55914D01*
Y253960D01*
X55534D01*
Y254150D01*
X55155D01*
Y254529D01*
X54965D01*
Y254719D01*
X54396D01*
Y254529D01*
X54206D01*
Y253580D01*
X54016D01*
Y253770D01*
X53827D01*
Y253960D01*
X53637D01*
Y254719D01*
X53827D01*
Y255098D01*
X54016D01*
Y255288D01*
X54775D01*
Y255098D01*
X54965D01*
Y254908D01*
X55724D01*
Y255098D01*
X55914D01*
Y255857D01*
X55724D01*
Y256047D01*
X55534D01*
Y256426D01*
X55344D01*
Y256806D01*
X55534D01*
Y257185D01*
X55724D01*
Y257375D01*
X55914D01*
Y257565D01*
X56103D01*
Y257754D01*
X56483D01*
Y257565D01*
X56672D01*
Y257375D01*
X57052D01*
Y257185D01*
X57242D01*
Y257375D01*
X57431D01*
Y257944D01*
X57242D01*
Y258703D01*
X57052D01*
Y258892D01*
X57242D01*
Y259082D01*
Y259272D01*
X57431D01*
Y259462D01*
X57621D01*
Y259841D01*
X58570D01*
Y259462D01*
X58759D01*
Y259272D01*
X59139D01*
Y259462D01*
X59328D01*
Y260410D01*
X59139D01*
Y261549D01*
X59328D01*
Y261738D01*
X59518D01*
Y262118D01*
X59898D01*
Y262307D01*
X60277D01*
Y262877D01*
X60087D01*
Y263256D01*
D02*
G37*
G36*
X43392Y241249D02*
X42443D01*
Y240869D01*
X42254D01*
Y240490D01*
X42064D01*
Y240300D01*
X41874D01*
Y239921D01*
X41685D01*
Y239731D01*
X41495D01*
Y239352D01*
X41305D01*
Y238972D01*
X41115D01*
Y238782D01*
X40926D01*
Y238403D01*
X40736D01*
Y238023D01*
X40546D01*
Y237834D01*
X40356D01*
Y237454D01*
X40167D01*
Y237075D01*
X39977D01*
Y236695D01*
X39787D01*
Y236316D01*
X39598D01*
Y236126D01*
X39408D01*
Y235557D01*
X39218D01*
Y234988D01*
X39408D01*
Y235178D01*
X39787D01*
Y235367D01*
X39977D01*
Y235557D01*
X40167D01*
Y235747D01*
X40356D01*
Y235937D01*
X40736D01*
Y236126D01*
X40926D01*
Y236316D01*
X41115D01*
Y236506D01*
X41305D01*
Y236695D01*
X41685D01*
Y236885D01*
X41874D01*
Y237075D01*
X42064D01*
Y237265D01*
X42254D01*
Y237454D01*
X42443D01*
Y237644D01*
X42633D01*
Y237834D01*
X42823D01*
Y238023D01*
X43013D01*
Y238213D01*
X43202D01*
Y238403D01*
X43392D01*
Y238593D01*
X43582D01*
Y238782D01*
X43961D01*
Y238972D01*
X44151D01*
Y239352D01*
X44341D01*
Y239921D01*
X44151D01*
Y240300D01*
X43961D01*
Y240490D01*
X43772D01*
Y240679D01*
X43582D01*
Y240869D01*
Y241059D01*
X43392D01*
Y241249D01*
D02*
G37*
%LPD*%
G36*
X62554Y268758D02*
X62364D01*
Y268379D01*
X62174D01*
Y268189D01*
X61985D01*
Y267999D01*
X61795D01*
Y267809D01*
X61605D01*
Y267620D01*
X61415D01*
Y267430D01*
X61226D01*
Y267240D01*
X60656D01*
Y267809D01*
X60846D01*
Y267999D01*
X61036D01*
Y268379D01*
X61226D01*
Y268568D01*
X61415D01*
Y268758D01*
X61605D01*
Y268948D01*
X61795D01*
Y269137D01*
X61985D01*
Y269327D01*
X62554D01*
Y268758D01*
D02*
G37*
G36*
X63502Y267620D02*
X63313D01*
Y267240D01*
X63123D01*
Y267050D01*
X62743D01*
Y266861D01*
X62554D01*
Y266481D01*
X62364D01*
Y266292D01*
X61985D01*
Y266102D01*
X61605D01*
Y266671D01*
X61795D01*
Y267050D01*
X61985D01*
Y267240D01*
X62174D01*
Y267430D01*
X62364D01*
Y267620D01*
X62554D01*
Y267999D01*
X62933D01*
Y268189D01*
X63502D01*
Y267620D01*
D02*
G37*
G36*
X65399Y265343D02*
X65210D01*
Y264963D01*
X65020D01*
Y264774D01*
X64830D01*
Y264394D01*
X64640D01*
Y264205D01*
X64451D01*
Y264015D01*
X64261D01*
Y263825D01*
X63692D01*
Y264015D01*
X63502D01*
Y264205D01*
X63692D01*
Y264774D01*
X63882D01*
Y264963D01*
X64071D01*
Y265153D01*
X64261D01*
Y265533D01*
X64451D01*
Y265722D01*
X64640D01*
Y265912D01*
X64830D01*
Y266102D01*
X65399D01*
Y265343D01*
D02*
G37*
G36*
X66348Y264205D02*
X66158D01*
Y263825D01*
X65969D01*
Y263636D01*
X65779D01*
Y263446D01*
X65589D01*
Y263066D01*
X65399D01*
Y262877D01*
X65210D01*
Y262687D01*
X65020D01*
Y262497D01*
X64640D01*
Y262307D01*
X64451D01*
Y262497D01*
Y262687D01*
Y263256D01*
X64640D01*
Y263446D01*
X64830D01*
Y263825D01*
X65210D01*
Y264205D01*
X65399D01*
Y264394D01*
X65589D01*
Y264584D01*
X65779D01*
Y264774D01*
X65969D01*
Y264963D01*
X66348D01*
Y264205D01*
D02*
G37*
G36*
X67107Y263636D02*
X67297D01*
Y263446D01*
X67107D01*
Y262877D01*
X66917D01*
Y262497D01*
X66727D01*
Y262118D01*
X66538D01*
Y261738D01*
X66348D01*
Y261549D01*
X65969D01*
Y261359D01*
X65399D01*
Y261928D01*
X65589D01*
Y262307D01*
X65779D01*
Y262687D01*
X65969D01*
Y262877D01*
X66158D01*
Y263066D01*
X66348D01*
Y263256D01*
X66538D01*
Y263446D01*
X66727D01*
Y263825D01*
X67107D01*
Y263636D01*
D02*
G37*
%LPC*%
G36*
X47756Y229865D02*
X47376D01*
Y229676D01*
X47186D01*
Y229486D01*
X46997D01*
Y229107D01*
X46807D01*
Y228917D01*
X46617D01*
Y228538D01*
X46427D01*
Y228348D01*
X46238D01*
Y228158D01*
X46048D01*
Y227779D01*
X45858D01*
Y227589D01*
X45669D01*
Y227399D01*
X45479D01*
Y227020D01*
X45289D01*
Y226830D01*
X45100D01*
Y226451D01*
X44910D01*
Y226261D01*
X44720D01*
Y225881D01*
X44910D01*
Y225692D01*
X45289D01*
Y225502D01*
X45669D01*
Y225312D01*
X46048D01*
Y225502D01*
X46617D01*
Y225692D01*
X46997D01*
Y225881D01*
X47186D01*
Y226071D01*
X47376D01*
Y226261D01*
X47566D01*
Y226451D01*
X47756D01*
Y226640D01*
X47945D01*
Y227020D01*
X48135D01*
Y227209D01*
X48325D01*
Y227779D01*
X48514D01*
Y229107D01*
X48325D01*
Y229296D01*
X48135D01*
Y229486D01*
X47945D01*
Y229676D01*
X47756D01*
Y229865D01*
D02*
G37*
%LPD*%
G36*
X47566Y229296D02*
X47376D01*
Y229486D01*
X47566D01*
Y229296D01*
D02*
G37*
G36*
X47376Y229107D02*
X47186D01*
Y229296D01*
X47376D01*
Y229107D01*
D02*
G37*
G36*
X47186Y228727D02*
X46997D01*
Y228917D01*
X47186D01*
Y228727D01*
D02*
G37*
G36*
X46048Y227209D02*
X45858D01*
Y227399D01*
X46048D01*
Y227209D01*
D02*
G37*
G36*
X45100Y225881D02*
X44910D01*
Y226071D01*
X45100D01*
Y225881D01*
D02*
G37*
%LPC*%
G36*
X52498Y226830D02*
X51360D01*
Y226640D01*
X50981D01*
Y226451D01*
X50791D01*
Y226261D01*
X50601D01*
Y225881D01*
X50412D01*
Y225692D01*
X50222D01*
Y225502D01*
X50032D01*
Y225123D01*
X49843D01*
Y224743D01*
X49653D01*
Y224174D01*
X49463D01*
Y223036D01*
X49653D01*
Y222846D01*
X49843D01*
Y222656D01*
X50032D01*
Y222467D01*
X50412D01*
Y222277D01*
X50791D01*
Y222467D01*
X51360D01*
Y222656D01*
X51550D01*
Y222846D01*
X51740D01*
Y223036D01*
X51929D01*
Y223225D01*
X52119D01*
Y223605D01*
X52309D01*
Y223794D01*
X52498D01*
Y224174D01*
X52688D01*
Y224553D01*
X52878D01*
Y225123D01*
X53068D01*
Y226261D01*
X52878D01*
Y226451D01*
X52688D01*
Y226640D01*
X52498D01*
Y226830D01*
D02*
G37*
%LPD*%
G36*
X50412Y224933D02*
X50222D01*
Y225123D01*
X50412D01*
Y224933D01*
D02*
G37*
G36*
X50032Y224174D02*
X49843D01*
Y224364D01*
X50032D01*
Y224174D01*
D02*
G37*
%LPC*%
G36*
X90822Y222467D02*
X89683D01*
Y222277D01*
X89304D01*
Y222087D01*
X89114D01*
Y221518D01*
X89304D01*
Y220949D01*
X89494D01*
Y220380D01*
X89683D01*
Y219810D01*
X89873D01*
Y220000D01*
X90442D01*
Y220190D01*
X90632D01*
Y220380D01*
X90822D01*
Y220569D01*
X91011D01*
Y220759D01*
X91201D01*
Y220949D01*
X91391D01*
Y221897D01*
X91201D01*
Y222087D01*
X91011D01*
Y222277D01*
X90822D01*
Y222467D01*
D02*
G37*
G36*
X67676Y221138D02*
X67297D01*
Y220569D01*
X67107D01*
Y219241D01*
X66917D01*
Y218293D01*
X66727D01*
Y216965D01*
X66538D01*
Y216206D01*
X66727D01*
Y216395D01*
X66917D01*
Y216206D01*
X67676D01*
Y216395D01*
X68056D01*
Y216585D01*
X68245D01*
Y216775D01*
X68435D01*
Y216965D01*
X68625D01*
Y217344D01*
X68814D01*
Y217913D01*
X69004D01*
Y220190D01*
X68814D01*
Y220569D01*
X68625D01*
Y220759D01*
X68245D01*
Y220949D01*
X67676D01*
Y221138D01*
D02*
G37*
%LPD*%
D10*
X124430Y198790D02*
G03*
X123430Y198790I-500J0D01*
G01*
D02*
G03*
X124430Y198790I500J0D01*
G01*
D11*
X125060Y477750D02*
G03*
X125060Y477750I-1000J0D01*
G01*
X121250Y692380D02*
G03*
X121250Y692380I-1000J0D01*
G01*
D12*
X445780Y628570D02*
G03*
X445780Y628570I-2500J0D01*
G01*
X130560Y339060D02*
Y494060D01*
X321560D01*
Y339060D02*
Y494060D01*
X130560Y339060D02*
X321560D01*
X475780Y627220D02*
X595780D01*
Y477220D02*
Y627220D01*
X475780Y477220D02*
X595780D01*
X475780D02*
Y627220D01*
X455780Y629820D02*
Y704820D01*
X615780D01*
Y629820D02*
Y704820D01*
X455780Y464820D02*
Y469820D01*
Y464820D02*
X475780D01*
X615780D02*
Y469820D01*
X595780Y464820D02*
X615780D01*
X126750Y553690D02*
Y708690D01*
X317750D01*
Y553690D02*
Y708690D01*
X126750Y553690D02*
X317750D01*
D13*
X74910Y169060D02*
G03*
X74910Y169060I-1250J0D01*
G01*
X643997Y535020D02*
G03*
X643997Y535020I-1250J0D01*
G01*
X577830Y254900D02*
G03*
X577830Y254900I-1250J0D01*
G01*
X69830Y659280D02*
G03*
X69830Y659280I-1250J0D01*
G01*
Y452270D02*
G03*
X69830Y452270I-1250J0D01*
G01*
X300260Y170250D02*
G03*
X300260Y170250I-1250J0D01*
G01*
X351340Y28160D02*
G03*
X351340Y28160I-1250J0D01*
G01*
X367010Y598390D02*
G03*
X367010Y598390I-1250J0D01*
G01*
X359390Y382050D02*
G03*
X359390Y382050I-1250J0D01*
G01*
D14*
X475850Y179070D02*
G03*
X475850Y179070I-42500J0D01*
G01*
X477430Y57150D02*
G03*
X477430Y57150I-34000J0D01*
G01*
X268950Y53340D02*
G03*
X268950Y53340I-34000J0D01*
G01*
Y168910D02*
G03*
X268950Y168910I-34000J0D01*
G01*
D15*
X131480Y12790D02*
Y30790D01*
Y12790D02*
X165980Y13040D01*
Y233040D01*
X131480D02*
X165980D01*
X131480Y214790D02*
Y233040D01*
X337720Y479760D02*
X363320D01*
X350520Y518760D02*
Y535140D01*
Y450380D02*
Y466760D01*
X337020D02*
X364020D01*
Y518760D01*
X337020D02*
X364020D01*
X337020Y466760D02*
Y518760D01*
X44660Y111760D02*
X102660D01*
X44660D02*
Y162560D01*
X102660Y111760D02*
Y162560D01*
X44660D02*
X102660D01*
X652097Y541020D02*
X661289D01*
Y660400D01*
X649351D02*
X661289D01*
X545830Y248900D02*
X607330D01*
X545830Y94000D02*
Y248900D01*
Y94000D02*
X607330D01*
Y248900D01*
X385980Y478490D02*
X411580D01*
X398780Y517490D02*
Y533870D01*
Y449110D02*
Y465490D01*
X385280D02*
X412280D01*
Y517490D01*
X385280D02*
X412280D01*
X385280Y465490D02*
Y517490D01*
X39379Y576581D02*
Y652781D01*
X97379D01*
Y576581D02*
Y652781D01*
X39379Y576581D02*
X97379D01*
X39379Y369571D02*
Y445771D01*
X97379D01*
Y369571D02*
Y445771D01*
X39379Y369571D02*
X97379D01*
X301485Y185675D02*
X366535D01*
Y220725D01*
X301485D02*
X366535D01*
X301485Y185675D02*
Y220725D01*
X315590Y21660D02*
Y125660D01*
X310590Y21660D02*
X356590D01*
Y21660D02*
Y125660D01*
X310590D02*
X356590D01*
X310590Y21660D02*
Y125660D01*
X416230Y40150D02*
Y74150D01*
X217450Y25340D02*
X252450D01*
X217950Y141710D02*
X251950D01*
X668020Y479010D02*
Y484060D01*
Y437960D02*
Y443010D01*
X658020D02*
X678020D01*
Y479010D01*
X658020D02*
X678020D01*
X658020Y443010D02*
Y479010D01*
X560290Y369570D02*
X565340D01*
X519240D02*
X524290D01*
Y359570D02*
Y379570D01*
Y359570D02*
X560290D01*
Y379570D01*
X524290D02*
X560290D01*
X523050Y302260D02*
X528100D01*
X564100D02*
X569150D01*
X564100Y292260D02*
Y312260D01*
X528100D02*
X564100D01*
X528100Y292260D02*
Y312260D01*
Y292260D02*
X564100D01*
X664210Y360900D02*
Y365950D01*
Y319850D02*
Y324900D01*
X654210D02*
X674210D01*
Y360900D01*
X654210D02*
X674210D01*
X654210Y324900D02*
Y360900D01*
X411480Y678930D02*
Y686180D01*
Y606680D02*
Y613930D01*
X398980D02*
X423980D01*
Y678930D01*
X398980D02*
X423980D01*
X398980Y613930D02*
Y678930D01*
X411480Y369050D02*
Y376300D01*
Y296800D02*
Y304050D01*
X398980D02*
X423980D01*
Y369050D01*
X398980D02*
X423980D01*
X398980Y304050D02*
Y369050D01*
X353760Y604890D02*
Y682890D01*
X350660Y604890D02*
Y682890D01*
X380660Y604890D02*
Y682890D01*
X350660D02*
X380660D01*
X350660Y604890D02*
X380660D01*
X370140Y297550D02*
Y375550D01*
X373240Y297550D02*
Y375550D01*
X343240Y297550D02*
Y375550D01*
Y297550D02*
X373240D01*
X343240Y375550D02*
X373240D01*
D16*
X72396Y25398D02*
Y10163D01*
X80013D01*
X82552Y12702D01*
Y15241D01*
X80013Y17780D01*
X72396D01*
X80013D01*
X82552Y20319D01*
Y22858D01*
X80013Y25398D01*
X72396D01*
X87631Y10163D02*
Y25398D01*
X95248D01*
X97788Y22858D01*
Y17780D01*
X95248Y15241D01*
X87631D01*
X92709D02*
X97788Y10163D01*
X102866D02*
X107944D01*
X105405D01*
Y25398D01*
X102866Y22858D01*
X124206Y519679D02*
Y504444D01*
Y509522D01*
X134363Y519679D01*
X126745Y512062D01*
X134363Y504444D01*
X139441D02*
X144519D01*
X141980D01*
Y519679D01*
X139441Y517140D01*
X442722Y730499D02*
Y717803D01*
X445261Y715264D01*
X450340D01*
X452879Y717803D01*
Y730499D01*
X468114D02*
X457957D01*
Y722881D01*
X463035Y725421D01*
X465575D01*
X468114Y722881D01*
Y717803D01*
X465575Y715264D01*
X460496D01*
X457957Y717803D01*
X337566Y579877D02*
Y564642D01*
X345183D01*
X347723Y567181D01*
Y577338D01*
X345183Y579877D01*
X337566D01*
X362958Y564642D02*
X352801D01*
X362958Y574799D01*
Y577338D01*
X360419Y579877D01*
X355340D01*
X352801Y577338D01*
X120396Y734309D02*
Y719074D01*
Y724152D01*
X130553Y734309D01*
X122935Y726692D01*
X130553Y719074D01*
X145788D02*
X135631D01*
X145788Y729231D01*
Y731770D01*
X143249Y734309D01*
X138170D01*
X135631Y731770D01*
X12702Y198100D02*
X27937D01*
Y190482D01*
X25398Y187943D01*
X20320D01*
X17780Y190482D01*
Y198100D01*
X27937Y175247D02*
Y180326D01*
X25398Y182865D01*
X15241D01*
X12702Y180326D01*
Y175247D01*
X15241Y172708D01*
X25398D01*
X27937Y175247D01*
Y167630D02*
X12702D01*
X17780Y162551D01*
X12702Y157473D01*
X27937D01*
Y142238D02*
Y152395D01*
X12702D01*
Y142238D01*
X20320Y152395D02*
Y147316D01*
X12702Y137160D02*
X27937D01*
Y129542D01*
X25398Y127003D01*
X20320D01*
X17780Y129542D01*
Y137160D01*
Y132081D02*
X12702Y127003D01*
X10163Y121924D02*
Y111768D01*
X27937Y106689D02*
Y101611D01*
Y104150D01*
X12702D01*
Y106689D01*
Y101611D01*
Y93994D02*
X27937D01*
X12702Y83837D01*
X27937D01*
X12702Y78758D02*
Y73680D01*
Y76219D01*
X27937D01*
X25398Y78758D01*
X644017Y689607D02*
X638939D01*
X641478D01*
Y676912D01*
X638939Y674372D01*
X636399D01*
X633860Y676912D01*
X649095Y674372D02*
X654174D01*
X651635D01*
Y689607D01*
X649095Y687068D01*
X656592Y64802D02*
X654053Y62263D01*
Y57184D01*
X656592Y54645D01*
X666748D01*
X669287Y57184D01*
Y62263D01*
X666748Y64802D01*
X661670D01*
Y59723D01*
X669287Y69880D02*
X654053D01*
Y77498D01*
X656592Y80037D01*
X661670D01*
X664209Y77498D01*
Y69880D01*
X654053Y85115D02*
Y90193D01*
Y87654D01*
X669287D01*
Y85115D01*
Y90193D01*
X654053Y105428D02*
Y100350D01*
X656592Y97811D01*
X666748D01*
X669287Y100350D01*
Y105428D01*
X666748Y107968D01*
X656592D01*
X654053Y105428D01*
X656592Y138438D02*
X654053Y135899D01*
Y130820D01*
X656592Y128281D01*
X666748D01*
X669287Y130820D01*
Y135899D01*
X666748Y138438D01*
X654053Y151134D02*
Y146055D01*
X656592Y143516D01*
X666748D01*
X669287Y146055D01*
Y151134D01*
X666748Y153673D01*
X656592D01*
X654053Y151134D01*
X669287Y158751D02*
X654053D01*
X669287Y168908D01*
X654053D01*
X669287Y173986D02*
X654053D01*
X669287Y184143D01*
X654053D01*
Y199378D02*
Y189221D01*
X669287D01*
Y199378D01*
X661670Y189221D02*
Y194300D01*
X656592Y214613D02*
X654053Y212074D01*
Y206996D01*
X656592Y204457D01*
X666748D01*
X669287Y206996D01*
Y212074D01*
X666748Y214613D01*
X654053Y219692D02*
Y229848D01*
Y224770D01*
X669287D01*
X654053Y242544D02*
Y237466D01*
X656592Y234927D01*
X666748D01*
X669287Y237466D01*
Y242544D01*
X666748Y245083D01*
X656592D01*
X654053Y242544D01*
X669287Y250162D02*
X654053D01*
Y257779D01*
X656592Y260318D01*
X661670D01*
X664209Y257779D01*
Y250162D01*
Y255240D02*
X669287Y260318D01*
Y265397D02*
Y270475D01*
Y267936D01*
X654053D01*
X656592Y265397D01*
X385826Y578607D02*
Y563372D01*
X393443D01*
X395983Y565911D01*
Y576068D01*
X393443Y578607D01*
X385826D01*
X401061Y563372D02*
X406139D01*
X403600D01*
Y578607D01*
X401061Y576068D01*
X24128Y670540D02*
X26667Y673079D01*
Y678157D01*
X24128Y680697D01*
X21589D01*
X19050Y678157D01*
Y673079D01*
X16511Y670540D01*
X13972D01*
X11432Y673079D01*
Y678157D01*
X13972Y680697D01*
X26667Y657844D02*
Y662922D01*
X24128Y665462D01*
X13972D01*
X11432Y662922D01*
Y657844D01*
X13972Y655305D01*
X24128D01*
X26667Y657844D01*
Y650226D02*
X11432D01*
Y640070D01*
X26667Y624835D02*
Y634991D01*
X11432D01*
Y624835D01*
X19050Y634991D02*
Y629913D01*
X11432Y619756D02*
X26667D01*
X11432Y609600D01*
X26667D01*
Y596904D02*
Y601982D01*
X24128Y604521D01*
X13972D01*
X11432Y601982D01*
Y596904D01*
X13972Y594365D01*
X24128D01*
X26667Y596904D01*
Y589286D02*
Y584208D01*
Y586747D01*
X11432D01*
Y589286D01*
Y584208D01*
X26667Y576590D02*
X11432D01*
Y568973D01*
X13972Y566433D01*
X24128D01*
X26667Y568973D01*
Y576590D01*
X11432Y535963D02*
Y546120D01*
X21589Y535963D01*
X24128D01*
X26667Y538503D01*
Y543581D01*
X24128Y546120D01*
X25398Y464801D02*
X27938Y467340D01*
Y472418D01*
X25398Y474957D01*
X22859D01*
X20320Y472418D01*
Y467340D01*
X17781Y464801D01*
X15242D01*
X12702Y467340D01*
Y472418D01*
X15242Y474957D01*
X27938Y452105D02*
Y457183D01*
X25398Y459722D01*
X15242D01*
X12702Y457183D01*
Y452105D01*
X15242Y449566D01*
X25398D01*
X27938Y452105D01*
Y444487D02*
X12702D01*
Y434330D01*
X27938Y419095D02*
Y429252D01*
X12702D01*
Y419095D01*
X20320Y429252D02*
Y424174D01*
X12702Y414017D02*
X27938D01*
X12702Y403860D01*
X27938D01*
Y391165D02*
Y396243D01*
X25398Y398782D01*
X15242D01*
X12702Y396243D01*
Y391165D01*
X15242Y388625D01*
X25398D01*
X27938Y391165D01*
Y383547D02*
Y378469D01*
Y381008D01*
X12702D01*
Y383547D01*
Y378469D01*
X27938Y370851D02*
X12702D01*
Y363233D01*
X15242Y360694D01*
X25398D01*
X27938Y363233D01*
Y370851D01*
X12702Y340381D02*
Y335303D01*
Y337842D01*
X27938D01*
X25398Y340381D01*
X397511Y248918D02*
X394972Y251458D01*
X389893D01*
X387354Y248918D01*
Y238762D01*
X389893Y236222D01*
X394972D01*
X397511Y238762D01*
X410207Y236222D02*
Y251458D01*
X402589Y243840D01*
X412746D01*
X298958Y265933D02*
Y253237D01*
X301497Y250698D01*
X306576D01*
X309115Y253237D01*
Y265933D01*
X314193Y263394D02*
X316732Y265933D01*
X321811D01*
X324350Y263394D01*
Y260855D01*
X321811Y258316D01*
X319271D01*
X321811D01*
X324350Y255776D01*
Y253237D01*
X321811Y250698D01*
X316732D01*
X314193Y253237D01*
X312166Y149601D02*
Y136905D01*
X314705Y134366D01*
X319783D01*
X322323Y136905D01*
Y149601D01*
X337558Y134366D02*
X327401D01*
X337558Y144523D01*
Y147062D01*
X335019Y149601D01*
X329940D01*
X327401Y147062D01*
X420113Y113534D02*
X417574Y116073D01*
X412495D01*
X409956Y113534D01*
Y103377D01*
X412495Y100838D01*
X417574D01*
X420113Y103377D01*
X425191Y113534D02*
X427730Y116073D01*
X432809D01*
X435348Y113534D01*
Y110995D01*
X432809Y108455D01*
X430269D01*
X432809D01*
X435348Y105916D01*
Y103377D01*
X432809Y100838D01*
X427730D01*
X425191Y103377D01*
X211579Y109724D02*
X209039Y112263D01*
X203961D01*
X201422Y109724D01*
Y99567D01*
X203961Y97028D01*
X209039D01*
X211579Y99567D01*
X226814Y97028D02*
X216657D01*
X226814Y107185D01*
Y109724D01*
X224275Y112263D01*
X219196D01*
X216657Y109724D01*
X211579Y225294D02*
X209039Y227833D01*
X203961D01*
X201422Y225294D01*
Y215137D01*
X203961Y212598D01*
X209039D01*
X211579Y215137D01*
X216657Y212598D02*
X221735D01*
X219196D01*
Y227833D01*
X216657Y225294D01*
X658622Y509270D02*
Y524505D01*
X666239D01*
X668779Y521966D01*
Y516888D01*
X666239Y514348D01*
X658622D01*
X663700D02*
X668779Y509270D01*
X673857D02*
X678935D01*
X676396D01*
Y524505D01*
X673857Y521966D01*
X504190Y389128D02*
Y404363D01*
X511808D01*
X514347Y401824D01*
Y396745D01*
X511808Y394206D01*
X504190D01*
X509268D02*
X514347Y389128D01*
X529582D02*
X519425D01*
X529582Y399285D01*
Y401824D01*
X527043Y404363D01*
X521964D01*
X519425Y401824D01*
X508000Y321818D02*
Y337053D01*
X515617D01*
X518157Y334514D01*
Y329436D01*
X515617Y326896D01*
X508000D01*
X513078D02*
X518157Y321818D01*
X523235Y334514D02*
X525774Y337053D01*
X530853D01*
X533392Y334514D01*
Y331975D01*
X530853Y329436D01*
X528313D01*
X530853D01*
X533392Y326896D01*
Y324357D01*
X530853Y321818D01*
X525774D01*
X523235Y324357D01*
X654812Y391160D02*
Y406395D01*
X662430D01*
X664969Y403856D01*
Y398778D01*
X662430Y396238D01*
X654812D01*
X659890D02*
X664969Y391160D01*
X677665D02*
Y406395D01*
X670047Y398778D01*
X680204D01*
X399542Y712216D02*
Y727451D01*
X407160D01*
X409699Y724912D01*
Y719834D01*
X407160Y717294D01*
X399542D01*
X404620D02*
X409699Y712216D01*
X424934Y727451D02*
X414777D01*
Y719834D01*
X419855Y722373D01*
X422395D01*
X424934Y719834D01*
Y714755D01*
X422395Y712216D01*
X417316D01*
X414777Y714755D01*
X399542Y402336D02*
Y417571D01*
X407160D01*
X409699Y415032D01*
Y409953D01*
X407160Y407414D01*
X399542D01*
X404620D02*
X409699Y402336D01*
X424934Y417571D02*
X419855Y415032D01*
X414777Y409953D01*
Y404875D01*
X417316Y402336D01*
X422395D01*
X424934Y404875D01*
Y407414D01*
X422395Y409953D01*
X414777D01*
X360677Y695705D02*
Y705862D01*
X358138Y708401D01*
X353059D01*
X350520Y705862D01*
Y695705D01*
X353059Y693166D01*
X358138D01*
X355598Y698244D02*
X360677Y693166D01*
X358138D02*
X360677Y695705D01*
X375912Y693166D02*
X365755D01*
X375912Y703323D01*
Y705862D01*
X373373Y708401D01*
X368294D01*
X365755Y705862D01*
X353311Y394715D02*
Y404872D01*
X350771Y407411D01*
X345693D01*
X343154Y404872D01*
Y394715D01*
X345693Y392176D01*
X350771D01*
X348232Y397254D02*
X353311Y392176D01*
X350771D02*
X353311Y394715D01*
X358389Y392176D02*
X363467D01*
X360928D01*
Y407411D01*
X358389Y404872D01*
M02*
